<svg width="24" height="24" viewBox="0 0 24 24" fill="none" xmlns="http://www.w3.org/2000/svg">
<path fill-rule="evenodd" clip-rule="evenodd" d="M12 10.4843L20.17 2.31286C20.3786 2.10429 20.6543 2 20.9286 2C21.5057 2 22 2.46286 22 3.07C22 3.34571 21.8957 3.62 21.6871 3.83L13.5157 12L21.6857 20.17C21.8957 20.38 22 20.6543 22 20.9286C22 21.5386 21.5014 22 20.9286 22C20.6543 22 20.3786 21.8957 20.17 21.6871L12 13.5171L3.83 21.6871C3.62143 21.8957 3.34571 22 3.07143 22C2.49857 22 2 21.5386 2 20.9286C2 20.6543 2.10429 20.38 2.31429 20.17L10.4843 12L2.31286 3.83C2.10429 3.62 2 3.34571 2 3.07C2 2.46286 2.49429 2 3.07143 2C3.34571 2 3.62143 2.10429 3.83 2.31286L12 10.4843Z" fill="url(#paint0_linear_32_288)"/>
<defs>
<linearGradient id="paint0_linear_32_288" x1="2" y1="11.8305" x2="22" y2="11.8305" gradientUnits="userSpaceOnUse">
<stop stop-color="#21D4FD"/>
<stop offset="1" stop-color="#B721FF"/>
</linearGradient>
</defs>
</svg>