<svg width="25" height="25" viewBox="0 0 25 25" fill="none" xmlns="http://www.w3.org/2000/svg">
<g clip-path="url(#clip0_59_512)">
<path d="M18.4168 6.5C17.079 6.5 15.6141 7.2291 14.069 8.66722C13.3399 9.34281 12.6977 10.0786 12.2295 10.6605C12.2295 10.6605 12.9787 11.5234 13.8014 12.4532C14.2496 11.8913 14.885 11.1288 15.6275 10.4398C16.9987 9.15552 17.895 8.89465 18.4101 8.89465C20.3365 8.89465 21.9017 10.5134 21.9017 12.5134C21.9017 14.4933 20.3365 16.112 18.4101 16.1321C18.3164 16.1321 18.2094 16.1187 18.0756 16.092C18.6375 16.3528 19.2462 16.5401 19.8148 16.5401C23.3465 16.5401 24.0422 14.0987 24.0823 13.9247C24.1827 13.4766 24.2429 13.0084 24.2429 12.5268C24.2362 9.20234 21.6275 6.5 18.4168 6.5Z" fill="#FAFAFA"/>
<path d="M6.07609 18.5268C7.41388 18.5268 8.87876 17.7977 10.4239 16.3595C11.153 15.6839 11.7952 14.9482 12.2634 14.3662C12.2634 14.3662 11.5142 13.5033 10.6915 12.5736C10.2433 13.1355 9.60786 13.898 8.86539 14.587C7.49415 15.8579 6.59114 16.1321 6.08278 16.1321C4.15635 16.1321 2.59114 14.5134 2.59114 12.5134C2.59114 10.5334 4.15635 8.91472 6.08278 8.89465C6.17642 8.89465 6.28344 8.90803 6.41722 8.93478C5.85535 8.67392 5.24666 8.48662 4.67809 8.48662C1.14632 8.47994 0.450669 10.9214 0.410535 11.102C0.310201 11.5502 0.25 12.0184 0.25 12.5C0.25 15.8244 2.8587 18.5268 6.07609 18.5268Z" fill="#FAFAFA"/>
<path fill-rule="evenodd" clip-rule="evenodd" d="M8.76511 10.4933C8.37715 10.1187 6.49087 8.58696 4.68485 8.53344C1.46076 8.45318 0.517621 10.7943 0.430664 11.0953C1.05274 8.47324 3.35374 6.51338 6.08284 6.5C8.31026 6.5 10.5644 8.68729 12.23 10.6605L12.2367 10.6538C12.2367 10.6538 12.9858 11.5167 13.8086 12.4465C13.8086 12.4465 14.745 13.5502 15.735 14.5201C16.123 14.8946 18.0026 16.4064 19.8086 16.4599C23.1196 16.5535 24.036 14.0786 24.0828 13.8913C23.4741 16.5334 21.1665 18.5 18.424 18.5134C16.1966 18.5134 13.9424 16.3261 12.2701 14.3528C12.2701 14.3595 12.2634 14.3595 12.2634 14.3662C12.2634 14.3662 11.5143 13.5033 10.6915 12.5736C10.6982 12.5736 9.76177 11.4632 8.76511 10.4933ZM0.430664 11.1221C0.430664 11.1154 0.430664 11.1087 0.437353 11.102C0.430664 11.1087 0.430664 11.1154 0.430664 11.1221Z" fill="#FAFAFA"/>
</g>
<defs>
<clipPath id="clip0_59_512">
<rect width="24" height="12.0268" fill="white" transform="translate(0.25 6.5)"/>
</clipPath>
</defs>
</svg>