<svg width="32" height="33" viewBox="0 0 32 33" fill="none" xmlns="http://www.w3.org/2000/svg">
<g clip-path="url(#clip0_119_953)">
<path d="M16 32.75C24.8366 32.75 32 25.5866 32 16.75C32 7.91348 24.8366 0.750038 16 0.750038C7.16344 0.750038 0 7.91348 0 16.75C0 25.5866 7.16344 32.75 16 32.75Z" fill="#3C5A9A"/>
<path d="M21.2023 5.66116H17.6579C15.5546 5.66116 13.215 6.5458 13.215 9.59471C13.2253 10.6571 13.215 11.6745 13.215 12.8195H10.7817V16.6916H13.2903V27.8388H17.9V16.6181H20.9426L21.2179 12.8087H17.8206C17.8206 12.8087 17.8282 11.1141 17.8206 10.622C17.8206 9.41711 19.0743 9.48611 19.1497 9.48611C19.7463 9.48611 20.9063 9.48785 21.2041 9.48611V5.66116H21.2023Z" fill="white"/>
</g>
<defs>
<clipPath id="clip0_119_953">
<rect width="32" height="32" fill="white" transform="translate(0 0.75)"/>
</clipPath>
</defs>
</svg>