<svg width="74" height="80" viewBox="0 0 74 80" fill="none" xmlns="http://www.w3.org/2000/svg">
<g filter="url(#filter0_f_1198_270)">
<path d="M28 8.6188C32.9504 5.76068 39.0496 5.76068 44 8.6188L59.1769 17.3812C64.1273 20.2393 67.1769 25.5214 67.1769 31.2376V48.7624C67.1769 54.4786 64.1273 59.7607 59.1769 62.6188L44 71.3812C39.0496 74.2393 32.9504 74.2393 28 71.3812L12.8231 62.6188C7.87267 59.7607 4.82309 54.4786 4.82309 48.7624V31.2376C4.82309 25.5214 7.87267 20.2393 12.8231 17.3812L28 8.6188Z" fill="url(#paint0_linear_1198_270)"/>
<path d="M44.5 7.75278C39.2402 4.71602 32.7598 4.71602 27.5 7.75278L12.3231 16.5152C7.06327 19.5519 3.82309 25.1641 3.82309 31.2376V48.7624C3.82309 54.8359 7.06327 60.4481 12.3231 63.4848L27.5 72.2472C32.7598 75.284 39.2402 75.284 44.5 72.2472L59.6769 63.4848C64.9367 60.4481 68.1769 54.8359 68.1769 48.7624V31.2376C68.1769 25.1641 64.9367 19.5519 59.6769 16.5152L44.5 7.75278Z" stroke="url(#paint1_linear_1198_270)" stroke-width="2"/>
</g>
<path d="M28.25 9.05182C33.0457 6.28301 38.9543 6.28301 43.75 9.05182L58.9269 17.8142C63.7226 20.583 66.6769 25.7 66.6769 31.2376V48.7624C66.6769 54.3 63.7226 59.417 58.9269 62.1858L43.75 70.9482C38.9543 73.717 33.0457 73.717 28.25 70.9482L13.0731 62.1858C8.27737 59.417 5.32309 54.3 5.32309 48.7624V31.2376C5.32309 25.7 8.27737 20.583 13.0731 17.8142L28.25 9.05182Z" fill="url(#paint2_linear_1198_270)"/>
<path d="M28.25 9.05182C33.0457 6.28301 38.9543 6.28301 43.75 9.05182L58.9269 17.8142C63.7226 20.583 66.6769 25.7 66.6769 31.2376V48.7624C66.6769 54.3 63.7226 59.417 58.9269 62.1858L43.75 70.9482C38.9543 73.717 33.0457 73.717 28.25 70.9482L13.0731 62.1858C8.27737 59.417 5.32309 54.3 5.32309 48.7624V31.2376C5.32309 25.7 8.27737 20.583 13.0731 17.8142L28.25 9.05182Z" stroke="white" style="mix-blend-mode:overlay"/>
<mask id="path-4-inside-1_1198_270" fill="white">
<path fill-rule="evenodd" clip-rule="evenodd" d="M8.12467 21.5034C6.01747 24.253 4.82309 27.6603 4.82309 31.2376V48.7624C4.82309 52.3398 6.01747 55.7471 8.12467 58.4966C8.24294 57.4423 8.44506 56.3978 8.72965 55.3733L11.5131 45.3529C12.4859 41.8506 12.4859 38.1494 11.5131 34.6471L8.72965 24.6267C8.44506 23.6022 8.24294 22.5578 8.12467 21.5034Z"/>
</mask>
<path fill-rule="evenodd" clip-rule="evenodd" d="M8.12467 21.5034C6.01747 24.253 4.82309 27.6603 4.82309 31.2376V48.7624C4.82309 52.3398 6.01747 55.7471 8.12467 58.4966C8.24294 57.4423 8.44506 56.3978 8.72965 55.3733L11.5131 45.3529C12.4859 41.8506 12.4859 38.1494 11.5131 34.6471L8.72965 24.6267C8.44506 23.6022 8.24294 22.5578 8.12467 21.5034Z" fill="url(#paint3_linear_1198_270)"/>
<path d="M8.12467 21.5034L9.11843 21.3919L8.84159 18.924L7.33095 20.8951L8.12467 21.5034ZM8.12467 58.4966L7.33095 59.1049L8.84159 61.076L9.11843 58.6081L8.12467 58.4966ZM8.72965 55.3733L9.69316 55.6409L8.72965 55.3733ZM11.5131 45.3529L10.5496 45.0852H10.5496L11.5131 45.3529ZM11.5131 34.6471L10.5496 34.9148H10.5496L11.5131 34.6471ZM8.72965 24.6267L7.76613 24.8944L8.72965 24.6267ZM5.82309 31.2376C5.82309 27.884 6.94266 24.6897 8.91838 22.1117L7.33095 20.8951C5.09228 23.8162 3.82309 27.4366 3.82309 31.2376H5.82309ZM5.82309 48.7624V31.2376H3.82309V48.7624H5.82309ZM8.91838 57.8883C6.94266 55.3103 5.82309 52.1161 5.82309 48.7624H3.82309C3.82309 52.5635 5.09228 56.1838 7.33095 59.1049L8.91838 57.8883ZM9.11843 58.6081C9.23079 57.6065 9.4228 56.6142 9.69316 55.6409L7.76613 55.1057C7.46731 56.1814 7.25509 57.2781 7.1309 58.3851L9.11843 58.6081ZM9.69316 55.6409L12.4766 45.6205L10.5496 45.0852L7.76613 55.1057L9.69316 55.6409ZM12.4766 45.6205C13.4981 41.9431 13.4981 38.0569 12.4766 34.3795L10.5496 34.9148C11.4738 38.2419 11.4738 41.7581 10.5496 45.0852L12.4766 45.6205ZM12.4766 34.3795L9.69316 24.3591L7.76613 24.8944L10.5496 34.9148L12.4766 34.3795ZM9.69316 24.3591C9.4228 23.3858 9.23079 22.3936 9.11843 21.3919L7.1309 21.6149C7.25509 22.722 7.46731 23.8186 7.76613 24.8944L9.69316 24.3591Z" fill="white" fill-opacity="0.4" style="mix-blend-mode:overlay" mask="url(#path-4-inside-1_1198_270)"/>
<g filter="url(#filter1_f_1198_270)">
<circle cx="40" cy="37" r="20.5" stroke="url(#paint4_linear_1198_270)" style="mix-blend-mode:overlay"/>
</g>
<circle cx="40" cy="37" r="19.5" fill="black" fill-opacity="0.2"/>
<circle cx="40" cy="37" r="19.5" stroke="url(#paint5_linear_1198_270)" style="mix-blend-mode:overlay"/>
<path fill-rule="evenodd" clip-rule="evenodd" d="M51 37C51 43.0751 46.0751 48 40 48C33.9249 48 29 43.0751 29 37C29 30.9249 33.9249 26 40 26C46.0751 26 51 30.9249 51 37ZM44.2639 31.4437C45.0727 31.1327 45.8673 31.9273 45.5563 32.7361L43.1475 38.9988C42.9444 39.527 42.527 39.9444 41.9988 40.1475L35.7361 42.5563C34.9273 42.8673 34.1327 42.0727 34.4437 41.2639L36.8525 35.0012C37.0556 34.473 37.473 34.0556 38.0012 33.8525L44.2639 31.4437ZM40 39C41.1046 39 42 38.1046 42 37C42 35.8954 41.1046 35 40 35C38.8954 35 38 35.8954 38 37C38 38.1046 38.8954 39 40 39Z" fill="white" style="mix-blend-mode:overlay"/>
<defs>
<filter id="filter0_f_1198_270" x="-1.17691" y="0.47522" width="74.3538" height="79.0496" filterUnits="userSpaceOnUse" color-interpolation-filters="sRGB">
<feFlood flood-opacity="0" result="BackgroundImageFix"/>
<feBlend mode="normal" in="SourceGraphic" in2="BackgroundImageFix" result="shape"/>
<feGaussianBlur stdDeviation="2" result="effect1_foregroundBlur_1198_270"/>
</filter>
<filter id="filter1_f_1198_270" x="15" y="12" width="50" height="50" filterUnits="userSpaceOnUse" color-interpolation-filters="sRGB">
<feFlood flood-opacity="0" result="BackgroundImageFix"/>
<feBlend mode="normal" in="SourceGraphic" in2="BackgroundImageFix" result="shape"/>
<feGaussianBlur stdDeviation="2" result="effect1_foregroundBlur_1198_270"/>
</filter>
<linearGradient id="paint0_linear_1198_270" x1="32.5" y1="42" x2="12.5" y2="64" gradientUnits="userSpaceOnUse">
<stop stop-color="#C441F4"/>
<stop offset="1" stop-color="#00DAEA"/>
</linearGradient>
<linearGradient id="paint1_linear_1198_270" x1="36" y1="4" x2="36" y2="76" gradientUnits="userSpaceOnUse">
<stop stop-color="#C618FF"/>
<stop offset="1" stop-color="#00C3FB"/>
</linearGradient>
<linearGradient id="paint2_linear_1198_270" x1="32.5" y1="42" x2="12.5" y2="64" gradientUnits="userSpaceOnUse">
<stop stop-color="#C441F4"/>
<stop offset="1" stop-color="#00DAEA"/>
</linearGradient>
<linearGradient id="paint3_linear_1198_270" x1="32.5" y1="42" x2="12.5" y2="64" gradientUnits="userSpaceOnUse">
<stop stop-color="#C441F4"/>
<stop offset="1" stop-color="#00DAEA"/>
</linearGradient>
<linearGradient id="paint4_linear_1198_270" x1="21" y1="21.5" x2="62.5" y2="53.5" gradientUnits="userSpaceOnUse">
<stop stop-color="#C322FF"/>
<stop offset="1" stop-color="#00BAE1"/>
</linearGradient>
<linearGradient id="paint5_linear_1198_270" x1="21" y1="21.5" x2="62.5" y2="53.5" gradientUnits="userSpaceOnUse">
<stop stop-color="#E8A9FF"/>
<stop offset="1" stop-color="#53E1FF"/>
</linearGradient>
</defs>
</svg>
