<svg width="40" height="40" viewBox="0 0 40 40" fill="none" xmlns="http://www.w3.org/2000/svg">
<circle cx="20" cy="20" r="20" fill="url(#paint0_linear_1195_272)"/>
<path d="M20 32L14.5875 29.1344L12 24.9401L15.8889 11.1687L20 13.4909L20 32Z" fill="url(#paint1_linear_1195_272)"/>
<path opacity="0.8" d="M20 32L20 22.4889L15.2197 25.2386L14.5875 29.1343L20 32Z" fill="url(#paint2_linear_1195_272)" fill-opacity="0.7"/>
<g opacity="0.8">
<path d="M20 31.9999L25.4134 29.1337L28 24.9401L24.1111 11.1687L20 13.4909L20 31.9999Z" fill="url(#paint3_linear_1195_272)" fill-opacity="0.7"/>
<path d="M20 31.9999L25.4134 29.1337L28 24.9401L24.1111 11.1687L20 13.4909L20 31.9999Z" fill="url(#paint4_linear_1195_272)" fill-opacity="0.5"/>
</g>
<path d="M15.8887 11.1687L20 13.4908L20 8.84653L15.8887 11.1687Z" fill="url(#paint5_linear_1195_272)"/>
<path d="M19.9999 24.6869L22.7222 26.2245L19.9999 27.762L17.2777 26.2245L19.9999 24.6869Z" fill="url(#paint6_linear_1195_272)" fill-opacity="0.5"/>
<path d="M24.1113 11.1687L20 8.84653L20 13.4908L24.1113 11.1687Z" fill="url(#paint7_linear_1195_272)" fill-opacity="0.8"/>
<path d="M19.9999 9.82526L22.2051 11.0708L19.9999 12.3163L17.7948 11.0708L19.9999 9.82526Z" fill="url(#paint8_linear_1195_272)" fill-opacity="0.6"/>
<path opacity="0.8" d="M20.0001 32L20.0001 22.4889L24.7804 25.2386L25.4125 29.1343L20.0001 32Z" fill="url(#paint9_linear_1195_272)"/>
<path d="M28 24.9401L25.4125 29.1343L24.7804 25.2387L28 24.9401Z" fill="url(#paint10_linear_1195_272)" fill-opacity="0.7"/>
<path d="M19.9999 21.0634L24.4304 23.5658L19.9999 26.0682L15.5695 23.5658L19.9999 21.0634Z" fill="url(#paint11_linear_1195_272)" fill-opacity="0.7"/>
<path d="M19.9999 21.0634L24.4304 23.5658L19.9999 26.0682L15.5695 23.5658L19.9999 21.0634Z" fill="url(#paint12_linear_1195_272)" fill-opacity="0.7"/>
<path d="M19.9999 26.0682L24.4302 23.5659L22.7221 26.2246L19.9999 27.7621V26.0682Z" fill="url(#paint13_linear_1195_272)" fill-opacity="0.9"/>
<path d="M19.9999 26.0689L15.5696 23.5665L17.7949 11.0707L19.9999 12.3163L19.9999 26.0689Z" fill="url(#paint14_linear_1195_272)" fill-opacity="0.6"/>
<path d="M20 26.0689L24.4303 23.5665L22.205 11.0707L20 12.3163L20 26.0689Z" fill="url(#paint15_linear_1195_272)" fill-opacity="0.9"/>
<path d="M19.9999 26.0682L15.5695 23.5659L17.2777 26.2246L19.9999 27.7621V26.0682Z" fill="url(#paint16_linear_1195_272)" fill-opacity="0.9"/>
<path d="M12.0001 24.9401L14.5875 29.1343L15.2197 25.2387L12.0001 24.9401Z" fill="url(#paint17_linear_1195_272)" fill-opacity="0.7"/>
<defs>
<linearGradient id="paint0_linear_1195_272" x1="1.5" y1="6.5" x2="32.5" y2="40" gradientUnits="userSpaceOnUse">
<stop stop-color="#70B4E5"/>
<stop offset="1" stop-color="#C417E0"/>
</linearGradient>
<linearGradient id="paint1_linear_1195_272" x1="35.7466" y1="9.71124" x2="36.8474" y2="25.2874" gradientUnits="userSpaceOnUse">
<stop stop-color="#3D79ED"/>
<stop offset="0.265625" stop-color="#3458C1" stop-opacity="0.7"/>
<stop offset="0.618879" stop-color="#3753B8" stop-opacity="0.7"/>
<stop offset="0.895833" stop-color="#5BB0FF" stop-opacity="0.9"/>
<stop offset="1" stop-color="#5BB0FF" stop-opacity="0.6"/>
</linearGradient>
<linearGradient id="paint2_linear_1195_272" x1="19.3599" y1="30.7448" x2="16.6832" y2="24.6665" gradientUnits="userSpaceOnUse">
<stop offset="0.046875" stop-color="white"/>
<stop offset="0.427083" stop-color="#DFF4FF"/>
<stop offset="0.994792" stop-color="#0E42C8"/>
</linearGradient>
<linearGradient id="paint3_linear_1195_272" x1="28" y1="32.5738" x2="18.8958" y2="25.4614" gradientUnits="userSpaceOnUse">
<stop offset="0.280479" stop-color="white"/>
<stop offset="0.469567" stop-color="#FF79DA"/>
<stop offset="0.692708" stop-color="#3D3AE3" stop-opacity="0.9"/>
</linearGradient>
<linearGradient id="paint4_linear_1195_272" x1="28" y1="31.6085" x2="19.0475" y2="22.8108" gradientUnits="userSpaceOnUse">
<stop offset="0.161458" stop-color="white"/>
<stop offset="1" stop-color="white" stop-opacity="0"/>
</linearGradient>
<linearGradient id="paint5_linear_1195_272" x1="20.0102" y1="8.92373" x2="17.9248" y2="12.4224" gradientUnits="userSpaceOnUse">
<stop stop-color="#1AD6FF"/>
<stop offset="1" stop-color="#496BE4" stop-opacity="0.6"/>
<stop offset="1" stop-color="#1F3CA3"/>
</linearGradient>
<linearGradient id="paint6_linear_1195_272" x1="21.5624" y1="27.0918" x2="17.8259" y2="26.1848" gradientUnits="userSpaceOnUse">
<stop stop-color="#81FF6C"/>
<stop offset="1" stop-color="#31F3FF"/>
</linearGradient>
<linearGradient id="paint7_linear_1195_272" x1="24.1113" y1="10.9306" x2="20.1938" y2="10.5579" gradientUnits="userSpaceOnUse">
<stop stop-color="#FF79C9"/>
<stop offset="1" stop-color="#1F3CA3"/>
</linearGradient>
<linearGradient id="paint8_linear_1195_272" x1="21.7789" y1="11.3624" x2="19.1794" y2="11.0568" gradientUnits="userSpaceOnUse">
<stop stop-color="#52FF6E"/>
<stop offset="1" stop-color="#31FFFF"/>
</linearGradient>
<linearGradient id="paint9_linear_1195_272" x1="24.3539" y1="30.4908" x2="22.4163" y2="23.4495" gradientUnits="userSpaceOnUse">
<stop offset="0.103809" stop-color="white"/>
<stop offset="0.436548" stop-color="#FFAACE" stop-opacity="0.8"/>
<stop offset="0.71875" stop-color="#6F97FF" stop-opacity="0.8"/>
</linearGradient>
<linearGradient id="paint10_linear_1195_272" x1="26.3902" y1="28.0521" x2="24.8402" y2="24.9106" gradientUnits="userSpaceOnUse">
<stop stop-color="white"/>
<stop offset="0.591466" stop-color="#FF94D4"/>
<stop offset="1" stop-color="#C994FF"/>
</linearGradient>
<linearGradient id="paint11_linear_1195_272" x1="22.5428" y1="24.9775" x2="16.4617" y2="23.5013" gradientUnits="userSpaceOnUse">
<stop stop-color="#81FF6C"/>
<stop offset="1" stop-color="#31F3FF"/>
</linearGradient>
<linearGradient id="paint12_linear_1195_272" x1="19.9999" y1="25.8886" x2="19.9999" y2="20.9492" gradientUnits="userSpaceOnUse">
<stop stop-color="white"/>
<stop offset="1" stop-color="white" stop-opacity="0"/>
</linearGradient>
<linearGradient id="paint13_linear_1195_272" x1="24.6463" y1="23.5659" x2="20.2086" y2="27.6687" gradientUnits="userSpaceOnUse">
<stop offset="0.149863" stop-color="white"/>
<stop offset="0.300261" stop-color="#8CFF31"/>
<stop offset="0.449118" stop-color="#45C3EB"/>
<stop offset="1" stop-color="#72E6FF"/>
</linearGradient>
<linearGradient id="paint14_linear_1195_272" x1="18.0218" y1="26.0689" x2="11.1045" y2="21.1058" gradientUnits="userSpaceOnUse">
<stop stop-color="#6CFFED"/>
<stop offset="1" stop-color="#197F9F"/>
</linearGradient>
<linearGradient id="paint15_linear_1195_272" x1="35.4831" y1="20.4458" x2="28.3238" y2="12.7703" gradientUnits="userSpaceOnUse">
<stop offset="0.464598" stop-color="white"/>
<stop offset="0.790313" stop-color="#6DF390"/>
<stop offset="1" stop-color="#21CAFF" stop-opacity="0.9"/>
</linearGradient>
<linearGradient id="paint16_linear_1195_272" x1="15.5695" y1="23.5659" x2="19.7912" y2="27.6582" gradientUnits="userSpaceOnUse">
<stop offset="0.125" stop-color="white"/>
<stop offset="0.297772" stop-color="#8CFF31"/>
<stop offset="0.447917" stop-color="#5BF5FF"/>
</linearGradient>
<linearGradient id="paint17_linear_1195_272" x1="14.756" y1="29.4747" x2="14.1601" y2="24.9363" gradientUnits="userSpaceOnUse">
<stop stop-color="#DFF4FF"/>
<stop offset="0.994792" stop-color="#0E42C8"/>
</linearGradient>
</defs>
</svg>
