<svg width="40" height="40" viewBox="0 0 40 40" fill="none" xmlns="http://www.w3.org/2000/svg">
<path fill-rule="evenodd" clip-rule="evenodd" d="M20 40C31.0457 40 40 31.0457 40 20C40 8.95431 31.0457 0 20 0C8.95431 0 0 8.95431 0 20C0 31.0457 8.95431 40 20 40Z" fill="black" fill-opacity="0.2"/>
<path d="M10.7393 19.9911C10.7393 20.8934 11.4697 21.6239 12.3721 21.6239H18.334V27.5858C18.334 28.4774 19.0537 29.2186 19.9561 29.2186C20.8584 29.2186 21.5889 28.4774 21.5889 27.5858V21.6239H27.5508C28.4424 21.6239 29.1729 20.8934 29.1729 19.9911C29.1729 19.0995 28.4424 18.369 27.5508 18.369H21.5889V12.4071C21.5889 11.5155 20.8584 10.7743 19.9561 10.7743C19.0537 10.7743 18.334 11.5155 18.334 12.4071V18.369H12.3721C11.4697 18.369 10.7393 19.0995 10.7393 19.9911Z" fill="white" style="mix-blend-mode:overlay"/>
</svg>
