<?xml version="1.0" encoding="UTF-8"?>
<!DOCTYPE svg PUBLIC "-//W3C//DTD SVG 1.1//EN" "http://www.w3.org/Graphics/SVG/1.1/DTD/svg11.dtd">
<svg xmlns="http://www.w3.org/2000/svg" version="1.1" width="2000" height="1877" style="shape-rendering:geometricPrecision; text-rendering:geometricPrecision; image-rendering:optimizeQuality; fill-rule:evenodd; clip-rule:evenodd" xmlns:xlink="http://www.w3.org/1999/xlink">
<g><path style="opacity:0.999" fill="#29aae1" d="M 1172.5,-0.5 C 1199.17,-0.5 1225.83,-0.5 1252.5,-0.5C 1344.35,5.87496 1433.35,25.7083 1519.5,59C 1605.29,93.0592 1686.96,134.726 1764.5,184C 1876.33,256.622 1981.67,337.955 2080.5,428C 2191.47,530.299 2296.97,637.799 2397,750.5C 2430.18,788.905 2463.35,827.238 2496.5,865.5C 2498.02,865.511 2499.18,866.177 2500,867.5C 2606.59,990.759 2713.92,1113.43 2822,1235.5C 2823.13,1237.14 2824.63,1238.14 2826.5,1238.5C 2954.71,1388.91 3089.38,1534.08 3230.5,1674C 3373.63,1800.97 3532.96,1903.97 3708.5,1983C 3726.74,1990.8 3745.07,1998.3 3763.5,2005.5C 3912.79,2066.58 4067.79,2088.08 4228.5,2070C 4362.56,2058.32 4488.56,2020.32 4606.5,1956C 4759.81,1868.18 4873.98,1744.35 4949,1584.5C 4954.78,1571.81 4959.78,1558.81 4964,1545.5C 4962.16,1555.53 4959.99,1565.53 4957.5,1575.5C 4894.43,1812.92 4773.77,2015.09 4595.5,2182C 4366.61,2390.27 4096.44,2497.43 3785,2503.5C 3685.31,2501.63 3588.81,2483.13 3495.5,2448C 3416.01,2417.92 3340.01,2380.92 3267.5,2337C 3187.32,2287.58 3110.65,2233.25 3037.5,2174C 2922.83,2079.02 2814,1977.19 2711,1868.5C 2640.47,1792.81 2571.64,1715.81 2504.5,1637.5C 2503.89,1637.62 2503.56,1637.96 2503.5,1638.5C 2394.53,1514.69 2285.7,1390.69 2177,1266.5C 2176.33,1265.75 2175.5,1265.41 2174.5,1265.5C 2046,1112.47 1910,965.638 1766.5,825C 1627.82,702.927 1474.48,602.261 1306.5,523C 1290.59,515.876 1274.59,509.043 1258.5,502.5C 1209.96,481.541 1159.96,464.541 1108.5,451.5C 1083.86,444.56 1058.86,439.226 1033.5,435.5C 1012.16,431.122 990.49,428.122 968.5,426.5C 960.014,425.426 951.347,424.759 942.5,424.5C 910.664,422.306 878.664,421.973 846.5,423.5C 813.302,424.35 780.302,427.017 747.5,431.5C 580.904,448.948 430.904,507.448 297.5,607C 194.32,687.159 114.487,785.992 58,903.5C 51.1695,918.162 45.1695,933.162 40,948.5C 42.7645,933.696 46.2645,919.029 50.5,904.5C 115.477,677.59 233.477,483.757 404.5,323C 621.088,123.934 877.088,16.1011 1172.5,-0.5 Z"/></g>
<g><path style="opacity:0.999" fill="#f05a24" d="M 3746.5,-0.5 C 3775.5,-0.5 3804.5,-0.5 3833.5,-0.5C 3919.46,3.35311 4004.13,16.3531 4087.5,38.5C 3913.83,211.167 3740.17,383.833 3566.5,556.5C 3507.73,586.373 3451.73,620.54 3398.5,659C 3337.55,703.6 3279.21,751.6 3223.5,803C 3154.97,865.864 3089.47,931.697 3027,1000.5C 2957.3,1077.67 2890.47,1157.01 2826.5,1238.5C 2824.63,1238.14 2823.13,1237.14 2822,1235.5C 2713.92,1113.43 2606.59,990.759 2500,867.5C 2499.18,866.177 2498.02,865.511 2496.5,865.5C 2622.16,707.975 2759.49,560.475 2908.5,423C 3001.89,337.583 3101.55,260.583 3207.5,192C 3282.54,143.976 3361.54,102.976 3444.5,69C 3541.6,29.7235 3642.26,6.55688 3746.5,-0.5 Z"/></g>
<g><path style="opacity:0.999" fill="#f15e24" d="M 4087.5,38.5 C 4098.3,41.1001 4108.96,44.1001 4119.5,47.5C 3959.06,207.105 3798.39,366.605 3637.5,526C 3637.73,526.399 3638.06,526.565 3638.5,526.5C 3614.33,535.895 3590.33,545.895 3566.5,556.5C 3740.17,383.833 3913.83,211.167 4087.5,38.5 Z"/></g>
<g><path style="opacity:0.999" fill="#f26126" d="M 4119.5,47.5 C 4138.37,52.9004 4157.03,58.9004 4175.5,65.5C 4028.81,211.194 3882.14,356.86 3735.5,502.5C 3702.41,507.523 3670.07,515.523 3638.5,526.5C 3638.06,526.565 3637.73,526.399 3637.5,526C 3798.39,366.605 3959.06,207.105 4119.5,47.5 Z"/></g>
<g><path style="opacity:0.999" fill="#f26627" d="M 4175.5,65.5 C 4207.73,76.7852 4239.4,89.4519 4270.5,103.5C 4136.85,236.862 4002.85,370.029 3868.5,503C 3869.06,503.383 3869.39,503.883 3869.5,504.5C 3824.89,498.384 3780.22,497.717 3735.5,502.5C 3882.14,356.86 4028.81,211.194 4175.5,65.5 Z"/></g>
<g><path style="opacity:0.999" fill="#f36d29" d="M 4270.5,103.5 C 4296.39,115.112 4321.72,127.779 4346.5,141.5C 4229.03,258.799 4111.37,375.966 3993.5,493C 3983.28,502.728 3972.94,512.228 3962.5,521.5C 3931.86,513.904 3900.86,508.238 3869.5,504.5C 3869.39,503.883 3869.06,503.383 3868.5,503C 4002.85,370.029 4136.85,236.862 4270.5,103.5 Z"/></g>
<g><path style="opacity:0.999" fill="#f4732a" d="M 4346.5,141.5 C 4371.64,154.673 4395.97,169.006 4419.5,184.5C 4295.89,306.111 4172.55,428.111 4049.5,550.5C 4020.89,539.407 3991.89,529.74 3962.5,521.5C 3972.94,512.228 3983.28,502.728 3993.5,493C 4111.37,375.966 4229.03,258.799 4346.5,141.5 Z"/></g>
<g><path style="opacity:0.999" fill="#f4792c" d="M 4419.5,184.5 C 4442.41,199.085 4464.74,214.418 4486.5,230.5C 4387.67,329.494 4288.34,427.994 4188.5,526C 4168.17,546.333 4147.83,566.667 4127.5,587C 4128.06,587.383 4128.39,587.883 4128.5,588.5C 4102.68,574.675 4076.34,562.009 4049.5,550.5C 4172.55,428.111 4295.89,306.111 4419.5,184.5 Z"/></g>
<g><path style="opacity:0.999" fill="#f5802e" d="M 4486.5,230.5 C 4512.34,248.676 4537.01,268.343 4560.5,289.5C 4443.47,406.862 4325.8,523.529 4207.5,639.5C 4181.97,621.31 4155.64,604.31 4128.5,588.5C 4128.39,587.883 4128.06,587.383 4127.5,587C 4147.83,566.667 4168.17,546.333 4188.5,526C 4288.34,427.994 4387.67,329.494 4486.5,230.5 Z"/></g>
<g><path style="opacity:0.999" fill="#f6862f" d="M 4560.5,289.5 C 4581.13,307.125 4601.13,325.458 4620.5,344.5C 4503.83,460.501 4386.83,576.168 4269.5,691.5C 4249.16,673.681 4228.5,656.347 4207.5,639.5C 4325.8,523.529 4443.47,406.862 4560.5,289.5 Z"/></g>
<g><path style="opacity:0.999" fill="#f78b31" d="M 4620.5,344.5 C 4630.53,353.533 4639.87,363.199 4648.5,373.5C 4531.53,488.472 4414.86,603.805 4298.5,719.5C 4288.81,710.139 4279.14,700.806 4269.5,691.5C 4386.83,576.168 4503.83,460.501 4620.5,344.5 Z"/></g>
<g><path style="opacity:0.999" fill="#f78e32" d="M 4648.5,373.5 C 4658.19,382.554 4667.19,392.221 4675.5,402.5C 4559.17,518.5 4442.83,634.5 4326.5,750.5C 4317.2,740.192 4307.86,729.859 4298.5,719.5C 4414.86,603.805 4531.53,488.472 4648.5,373.5 Z"/></g>
<g><path style="opacity:0.999" fill="#f79233" d="M 4675.5,402.5 C 4694.26,422.596 4711.93,443.596 4728.5,465.5C 4610.9,580.937 4493.73,696.937 4377,813.5C 4376.54,814.094 4376.37,814.761 4376.5,815.5C 4360.63,793.287 4343.96,771.62 4326.5,750.5C 4442.83,634.5 4559.17,518.5 4675.5,402.5 Z"/></g>
<g><path style="opacity:1" fill="#602684" d="M 942.5,424.5 C 940.801,424.34 939.134,424.506 937.5,425C 630.194,729.306 323.194,1033.97 16.5,1339C 11.9404,1343.07 7.27378,1346.9 2.5,1350.5C 1.78083,1334 0.780829,1317.66 -0.5,1301.5C -0.5,1289.17 -0.5,1276.83 -0.5,1264.5C 282.193,984.473 564.526,704.14 846.5,423.5C 878.664,421.973 910.664,422.306 942.5,424.5 Z"/></g>
<g><path style="opacity:1" fill="#5a2684" d="M 846.5,423.5 C 564.526,704.14 282.193,984.473 -0.5,1264.5C -0.5,1243.17 -0.5,1221.83 -0.5,1200.5C 0.460962,1191 1.12763,1181.34 1.5,1171.5C 250.526,925.14 499.193,678.474 747.5,431.5C 780.302,427.017 813.302,424.35 846.5,423.5 Z"/></g>
<g><path style="opacity:1" fill="#642684" d="M 942.5,424.5 C 951.347,424.759 960.014,425.426 968.5,426.5C 967.127,426.343 965.793,426.51 964.5,427C 957.136,434.698 949.47,442.031 941.5,449C 629.632,759.035 317.632,1068.87 5.5,1378.5C 4.49934,1369.16 3.49934,1359.82 2.5,1350.5C 7.27378,1346.9 11.9404,1343.07 16.5,1339C 323.194,1033.97 630.194,729.306 937.5,425C 939.134,424.506 940.801,424.34 942.5,424.5 Z"/></g>
<g><path style="opacity:0.999" fill="#672583" d="M 968.5,426.5 C 990.49,428.122 1012.16,431.122 1033.5,435.5C 984.755,483.744 936.089,532.244 887.5,581C 887.728,581.399 888.062,581.565 888.5,581.5C 755.988,653.012 653.321,754.679 580.5,886.5C 580.565,886.062 580.399,885.728 580,885.5C 391.833,1072.33 203.667,1259.17 15.5,1446C 14.9056,1446.46 14.2389,1446.63 13.5,1446.5C 10.3408,1423.89 7.67411,1401.23 5.5,1378.5C 317.632,1068.87 629.632,759.035 941.5,449C 949.47,442.031 957.136,434.698 964.5,427C 965.793,426.51 967.127,426.343 968.5,426.5 Z"/></g>
<g><path style="opacity:1" fill="#532785" d="M 747.5,431.5 C 499.193,678.474 250.526,925.14 1.5,1171.5C 6.36847,1097.29 17.2018,1023.96 34,951.5C 38.6401,935.407 44.1401,919.74 50.5,904.5C 46.2645,919.029 42.7645,933.696 40,948.5C 45.1695,933.162 51.1695,918.162 58,903.5C 114.487,785.992 194.32,687.159 297.5,607C 430.904,507.448 580.904,448.948 747.5,431.5 Z"/></g>
<g><path style="opacity:0.998" fill="#6d2583" d="M 1033.5,435.5 C 1058.86,439.226 1083.86,444.56 1108.5,451.5C 1085.7,474.799 1062.7,497.965 1039.5,521C 1040.42,521.278 1041.08,521.778 1041.5,522.5C 988.19,536.327 937.19,555.994 888.5,581.5C 888.062,581.565 887.728,581.399 887.5,581C 936.089,532.244 984.755,483.744 1033.5,435.5 Z"/></g>
<g><path style="opacity:0.995" fill="#742582" d="M 1108.5,451.5 C 1159.96,464.541 1209.96,481.541 1258.5,502.5C 1185.02,496.147 1112.69,502.814 1041.5,522.5C 1041.08,521.778 1040.42,521.278 1039.5,521C 1062.7,497.965 1085.7,474.799 1108.5,451.5 Z"/></g>
<g><path style="opacity:0.999" fill="#f89934" d="M 4728.5,465.5 C 4748.38,490.243 4767.04,515.91 4784.5,542.5C 4664.55,660.445 4544.89,778.778 4425.5,897.5C 4410.68,869.174 4394.34,841.84 4376.5,815.5C 4376.37,814.761 4376.54,814.094 4377,813.5C 4493.73,696.937 4610.9,580.937 4728.5,465.5 Z"/></g>
<g><path style="opacity:0.999" fill="#f99f36" d="M 4784.5,542.5 C 4799.85,565.193 4814.18,588.526 4827.5,612.5C 4705.62,733.217 4583.78,854.217 4462,975.5C 4461.54,976.094 4461.37,976.761 4461.5,977.5C 4450.63,950.424 4438.63,923.757 4425.5,897.5C 4544.89,778.778 4664.55,660.445 4784.5,542.5 Z"/></g>
<g><path style="opacity:0.999" fill="#f9a437" d="M 4827.5,612.5 C 4832.89,620.938 4838.06,629.605 4843,638.5C 4847.7,646.577 4851.87,654.91 4855.5,663.5C 4730.81,787.528 4605.81,911.195 4480.5,1034.5C 4474.39,1015.51 4468.06,996.511 4461.5,977.5C 4461.37,976.761 4461.54,976.094 4462,975.5C 4583.78,854.217 4705.62,733.217 4827.5,612.5 Z"/></g>
<g><path style="opacity:0.999" fill="#faa738" d="M 4855.5,663.5 C 4860.03,671.225 4864.03,679.225 4867.5,687.5C 4741.42,811.41 4615.76,935.91 4490.5,1061C 4489.47,1061.51 4488.47,1062.01 4487.5,1062.5C 4485.17,1053.17 4482.83,1043.83 4480.5,1034.5C 4605.81,911.195 4730.81,787.528 4855.5,663.5 Z"/></g>
<g><path style="opacity:0.999" fill="#faab39" d="M 4867.5,687.5 C 4880.83,713.169 4892.83,739.502 4903.5,766.5C 4900.06,768.759 4896.73,771.259 4893.5,774C 4764.24,902.756 4634.91,1031.26 4505.5,1159.5C 4501.76,1126.72 4495.76,1094.38 4487.5,1062.5C 4488.47,1062.01 4489.47,1061.51 4490.5,1061C 4615.76,935.91 4741.42,811.41 4867.5,687.5 Z"/></g>
<g><path style="opacity:0.999" fill="#faaf3b" d="M 4903.5,766.5 C 4961.17,907.527 4993.17,1054.19 4999.5,1206.5C 4999.5,1238.83 4999.5,1271.17 4999.5,1303.5C 4995.56,1386.33 4984.39,1468.33 4966,1549.5C 4963.76,1558.48 4960.93,1567.14 4957.5,1575.5C 4959.99,1565.53 4962.16,1555.53 4964,1545.5C 4959.78,1558.81 4954.78,1571.81 4949,1584.5C 4873.98,1744.35 4759.81,1868.18 4606.5,1956C 4488.56,2020.32 4362.56,2058.32 4228.5,2070C 4067.79,2088.08 3912.79,2066.58 3763.5,2005.5C 3973.86,2005.48 4152.36,1930.81 4299,1781.5C 4437.73,1633.25 4508.56,1456.91 4511.5,1252.5C 4511.06,1221.39 4509.06,1190.39 4505.5,1159.5C 4634.91,1031.26 4764.24,902.756 4893.5,774C 4896.73,771.259 4900.06,768.759 4903.5,766.5 Z"/></g>
<g><path style="opacity:0.999" fill="#6d2583" d="M 580.5,886.5 C 554.217,935.39 533.217,986.39 517.5,1039.5C 517.565,1039.06 517.399,1038.73 517,1038.5C 353.993,1200.01 191.16,1361.67 28.5,1523.5C 22.5435,1498.11 17.5435,1472.44 13.5,1446.5C 14.2389,1446.63 14.9056,1446.46 15.5,1446C 203.667,1259.17 391.833,1072.33 580,885.5C 580.399,885.728 580.565,886.062 580.5,886.5 Z"/></g>
<g><path style="opacity:0.999" fill="#732482" d="M 517.5,1039.5 C 507.044,1077.78 499.044,1116.45 493.5,1155.5C 493.631,1154.76 493.464,1154.09 493,1153.5C 345.888,1298.95 199.054,1444.78 52.5,1591C 50.2657,1592.75 47.9324,1594.25 45.5,1595.5C 38.8887,1571.72 33.222,1547.72 28.5,1523.5C 191.16,1361.67 353.993,1200.01 517,1038.5C 517.399,1038.73 517.565,1039.06 517.5,1039.5 Z"/></g>
<g><path style="opacity:0.999" fill="#792482" d="M 493.5,1155.5 C 490.089,1188.08 488.089,1220.74 487.5,1253.5C 486.778,1253.08 486.278,1252.42 486,1251.5C 346.299,1389.7 206.799,1528.03 67.5,1666.5C 59.3919,1643.07 52.0586,1619.4 45.5,1595.5C 47.9324,1594.25 50.2657,1592.75 52.5,1591C 199.054,1444.78 345.888,1298.95 493,1153.5C 493.464,1154.09 493.631,1154.76 493.5,1155.5 Z"/></g>
<g><path style="opacity:0.999" fill="#7f2481" d="M 487.5,1253.5 C 488.13,1285.92 490.13,1318.25 493.5,1350.5C 361.229,1480.6 229.396,1611.27 98,1742.5C 97.5357,1743.09 97.369,1743.76 97.5,1744.5C 86.4319,1719.01 76.4319,1693.01 67.5,1666.5C 206.799,1528.03 346.299,1389.7 486,1251.5C 486.278,1252.42 486.778,1253.08 487.5,1253.5 Z"/></g>
<g><path style="opacity:0.999" fill="#ec1e78" d="M 2174.5,1265.5 C 2175.5,1265.41 2176.33,1265.75 2177,1266.5C 2285.7,1390.69 2394.53,1514.69 2503.5,1638.5C 2377.51,1796.36 2239.84,1944.19 2090.5,2082C 1992.33,2171.53 1887.33,2251.87 1775.5,2323C 1701.17,2369.17 1623.17,2408.5 1541.5,2441C 1448.38,2477.53 1352.05,2499.03 1252.5,2505.5C 1223.5,2505.5 1194.5,2505.5 1165.5,2505.5C 1075.38,2501.48 986.714,2487.48 899.5,2463.5C 899.389,2462.88 899.056,2462.38 898.5,2462C 1028.75,2333.08 1159.09,2204.08 1289.5,2075C 1327.75,2037.25 1365.42,1999.08 1402.5,1960.5C 1462.99,1933.1 1520.32,1900.6 1574.5,1863C 1645.63,1813.22 1713.3,1758.89 1777.5,1700C 1877.98,1606.53 1972.48,1507.7 2061,1403.5C 2099.09,1357.61 2136.92,1311.61 2174.5,1265.5 Z"/></g>
<g><path style="opacity:0.999" fill="#862481" d="M 493.5,1350.5 C 497.368,1376.18 502.034,1401.85 507.5,1427.5C 380.062,1552.77 253.062,1678.6 126.5,1805C 125.906,1805.46 125.239,1805.63 124.5,1805.5C 114.544,1785.65 105.544,1765.31 97.5,1744.5C 97.369,1743.76 97.5357,1743.09 98,1742.5C 229.396,1611.27 361.229,1480.6 493.5,1350.5 Z"/></g>
<g><path style="opacity:0.999" fill="#8c2380" d="M 507.5,1427.5 C 513.217,1450.65 519.55,1473.65 526.5,1496.5C 526.649,1497.55 526.483,1498.55 526,1499.5C 402.694,1621.14 279.694,1743.14 157,1865.5C 156.536,1866.09 156.369,1866.76 156.5,1867.5C 144.816,1847.47 134.149,1826.8 124.5,1805.5C 125.239,1805.63 125.906,1805.46 126.5,1805C 253.062,1678.6 380.062,1552.77 507.5,1427.5 Z"/></g>
<g><path style="opacity:0.999" fill="#922380" d="M 526.5,1496.5 C 534.569,1519.32 543.236,1541.99 552.5,1564.5C 430.862,1683.8 309.862,1803.8 189.5,1924.5C 177.31,1906.28 166.31,1887.28 156.5,1867.5C 156.369,1866.76 156.536,1866.09 157,1865.5C 279.694,1743.14 402.694,1621.14 526,1499.5C 526.483,1498.55 526.649,1497.55 526.5,1496.5 Z"/></g>
<g><path style="opacity:0.999" fill="#98237f" d="M 552.5,1564.5 C 563.699,1588.56 575.699,1612.23 588.5,1635.5C 476.75,1745.08 365.417,1855.25 254.5,1966C 246.609,1973.4 238.609,1980.56 230.5,1987.5C 216.076,1966.98 202.409,1945.98 189.5,1924.5C 309.862,1803.8 430.862,1683.8 552.5,1564.5 Z"/></g>
<g><path style="opacity:0.998" fill="#9f227e" d="M 588.5,1635.5 C 599.738,1654.08 611.404,1672.41 623.5,1690.5C 505.833,1807.17 388.167,1923.83 270.5,2040.5C 256.429,2023.42 243.096,2005.76 230.5,1987.5C 238.609,1980.56 246.609,1973.4 254.5,1966C 365.417,1855.25 476.75,1745.08 588.5,1635.5 Z"/></g>
<g><path style="opacity:0.999" fill="#a5217e" d="M 623.5,1690.5 C 636.065,1708.73 649.398,1726.4 663.5,1743.5C 661.405,1744.41 659.405,1745.58 657.5,1747C 542.667,1861.17 427.833,1975.33 313,2089.5C 312.536,2090.09 312.369,2090.76 312.5,2091.5C 297.775,2075.11 283.775,2058.11 270.5,2040.5C 388.167,1923.83 505.833,1807.17 623.5,1690.5 Z"/></g>
<g><path style="opacity:0.999" fill="#ab217d" d="M 663.5,1743.5 C 677.256,1759.31 691.256,1774.98 705.5,1790.5C 588.527,1906.14 471.861,2022.14 355.5,2138.5C 340.826,2123.16 326.493,2107.49 312.5,2091.5C 312.369,2090.76 312.536,2090.09 313,2089.5C 427.833,1975.33 542.667,1861.17 657.5,1747C 659.405,1745.58 661.405,1744.41 663.5,1743.5 Z"/></g>
<g><path style="opacity:0.999" fill="#b2217d" d="M 705.5,1790.5 C 723.594,1808.27 742.26,1825.27 761.5,1841.5C 644.14,1957.86 526.806,2074.19 409.5,2190.5C 390.563,2174.23 372.563,2156.9 355.5,2138.5C 471.861,2022.14 588.527,1906.14 705.5,1790.5 Z"/></g>
<g><path style="opacity:0.999" fill="#b8207c" d="M 761.5,1841.5 C 778.239,1854.91 795.239,1867.91 812.5,1880.5C 695.034,1997.8 577.368,2114.97 459.5,2232C 458.906,2232.46 458.239,2232.63 457.5,2232.5C 440.71,2219.43 424.71,2205.43 409.5,2190.5C 526.806,2074.19 644.14,1957.86 761.5,1841.5 Z"/></g>
<g><path style="opacity:0.999" fill="#bd207c" d="M 812.5,1880.5 C 825.805,1888.82 839.139,1897.16 852.5,1905.5C 760.721,1998.45 668.054,2090.61 574.5,2182C 547.581,2208.42 521.248,2235.25 495.5,2262.5C 482.431,2252.97 469.764,2242.97 457.5,2232.5C 458.239,2232.63 458.906,2232.46 459.5,2232C 577.368,2114.97 695.034,1997.8 812.5,1880.5 Z"/></g>
<g><path style="opacity:0.999" fill="#c0207b" d="M 852.5,1905.5 C 858.536,1909.18 864.536,1912.85 870.5,1916.5C 858.057,1927.77 845.723,1939.27 833.5,1951C 726,2057.83 618.5,2164.67 511,2271.5C 510.536,2272.09 510.369,2272.76 510.5,2273.5C 505.214,2270.21 500.214,2266.55 495.5,2262.5C 521.248,2235.25 547.581,2208.42 574.5,2182C 668.054,2090.61 760.721,1998.45 852.5,1905.5 Z"/></g>
<g><path style="opacity:0.999" fill="#c4207b" d="M 870.5,1916.5 C 890.26,1927.05 910.26,1937.05 930.5,1946.5C 808.674,2067.49 686.674,2188.33 564.5,2309C 563.552,2309.48 562.552,2309.65 561.5,2309.5C 543.922,2298.25 526.922,2286.25 510.5,2273.5C 510.369,2272.76 510.536,2272.09 511,2271.5C 618.5,2164.67 726,2057.83 833.5,1951C 845.723,1939.27 858.057,1927.77 870.5,1916.5 Z"/></g>
<g><path style="opacity:0.999" fill="#cb1f7b" d="M 930.5,1946.5 C 956.277,1956.98 982.277,1966.65 1008.5,1975.5C 882.062,2099.77 756.062,2224.6 630.5,2350C 629.906,2350.46 629.239,2350.63 628.5,2350.5C 605.353,2337.99 583.019,2324.32 561.5,2309.5C 562.552,2309.65 563.552,2309.48 564.5,2309C 686.674,2188.33 808.674,2067.49 930.5,1946.5 Z"/></g>
<g><path style="opacity:0.999" fill="#e41e79" d="M 1402.5,1960.5 C 1365.42,1999.08 1327.75,2037.25 1289.5,2075C 1159.09,2204.08 1028.75,2333.08 898.5,2462C 899.056,2462.38 899.389,2462.88 899.5,2463.5C 872.023,2456.01 845.023,2447.34 818.5,2437.5C 818.369,2436.76 818.536,2436.09 819,2435.5C 963.001,2291.83 1107.33,2148.5 1252,2005.5C 1252.46,2004.91 1252.63,2004.24 1252.5,2003.5C 1304.62,1996.46 1354.62,1982.13 1402.5,1960.5 Z"/></g>
<g><path style="opacity:0.999" fill="#d11f7a" d="M 1008.5,1975.5 C 1032.45,1982.15 1056.45,1988.15 1080.5,1993.5C 951.007,2123.16 821.007,2252.33 690.5,2381C 689.207,2381.49 687.873,2381.66 686.5,2381.5C 666.523,2372.18 647.19,2361.85 628.5,2350.5C 629.239,2350.63 629.906,2350.46 630.5,2350C 756.062,2224.6 882.062,2099.77 1008.5,1975.5 Z"/></g>
<g><path style="opacity:0.999" fill="#d71e7a" d="M 1080.5,1993.5 C 1107.52,1998.03 1134.52,2001.69 1161.5,2004.5C 1024.83,2140.17 888.167,2275.83 751.5,2411.5C 729.405,2402.28 707.738,2392.28 686.5,2381.5C 687.873,2381.66 689.207,2381.49 690.5,2381C 821.007,2252.33 951.007,2123.16 1080.5,1993.5 Z"/></g>
<g><path style="opacity:0.999" fill="#dd1e79" d="M 1252.5,2003.5 C 1252.63,2004.24 1252.46,2004.91 1252,2005.5C 1107.33,2148.5 963.001,2291.83 819,2435.5C 818.536,2436.09 818.369,2436.76 818.5,2437.5C 795.631,2429.99 773.298,2421.33 751.5,2411.5C 888.167,2275.83 1024.83,2140.17 1161.5,2004.5C 1179.18,2004.95 1196.84,2005.62 1214.5,2006.5C 1227.22,2005.88 1239.89,2004.88 1252.5,2003.5 Z"/></g>
</svg>
