<svg width="32" height="33" viewBox="0 0 32 33" fill="none" xmlns="http://www.w3.org/2000/svg">
<g clip-path="url(#clip0_119_956)">
<path d="M8.11436 32.6368C6.21131 32.5503 5.17752 32.2336 4.48991 31.9654C3.5788 31.6106 2.92924 31.1884 2.24543 30.5055C1.56163 29.8227 1.13841 29.1731 0.785568 28.262C0.517372 27.5744 0.200672 26.5406 0.114126 24.6375C0.019021 22.5804 0 21.9632 0 16.7514C0 11.5397 0.0209231 10.9234 0.113175 8.86436C0.199721 6.96131 0.518323 5.92942 0.784617 5.23991C1.13936 4.3288 1.56258 3.67924 2.24448 2.99448C2.92733 2.31163 3.5769 1.88746 4.48896 1.53462C5.17657 1.26642 6.21036 0.949721 8.11341 0.863175C10.1715 0.769021 10.7897 0.75 15.9995 0.75C21.2113 0.75 21.8276 0.770923 23.8866 0.863175C25.7896 0.949721 26.8215 1.26832 27.511 1.53462C28.4221 1.88746 29.0717 2.31163 29.7555 2.99448C30.4393 3.67733 30.8606 4.32785 31.2154 5.23896C31.4836 5.92657 31.8003 6.96036 31.8868 8.86341C31.981 10.9224 32 11.5387 32 16.7505C32 21.9603 31.981 22.5785 31.8868 24.6375C31.8003 26.5406 31.4817 27.5744 31.2154 28.262C30.8606 29.1731 30.4384 29.8227 29.7555 30.5055C29.0727 31.1884 28.4221 31.6106 27.511 31.9654C26.8234 32.2336 25.7896 32.5503 23.8866 32.6368C21.8295 32.731 21.2113 32.75 15.9995 32.75C10.7897 32.75 10.1715 32.7319 8.11436 32.6368" fill="url(#paint0_radial_119_956)"/>
<path d="M8.11436 32.6368C6.21131 32.5503 5.17752 32.2336 4.48991 31.9654C3.5788 31.6106 2.92924 31.1884 2.24543 30.5055C1.56163 29.8227 1.13841 29.1731 0.785568 28.262C0.517372 27.5744 0.200672 26.5406 0.114126 24.6375C0.019021 22.5804 0 21.9632 0 16.7514C0 11.5397 0.0209231 10.9234 0.113175 8.86436C0.199721 6.96131 0.518323 5.92942 0.784617 5.23991C1.13936 4.3288 1.56258 3.67924 2.24448 2.99448C2.92733 2.31163 3.5769 1.88746 4.48896 1.53462C5.17657 1.26642 6.21036 0.949721 8.11341 0.863175C10.1715 0.769021 10.7897 0.75 15.9995 0.75C21.2113 0.75 21.8276 0.770923 23.8866 0.863175C25.7896 0.949721 26.8215 1.26832 27.511 1.53462C28.4221 1.88746 29.0717 2.31163 29.7555 2.99448C30.4393 3.67733 30.8606 4.32785 31.2154 5.23896C31.4836 5.92657 31.8003 6.96036 31.8868 8.86341C31.981 10.9224 32 11.5387 32 16.7505C32 21.9603 31.981 22.5785 31.8868 24.6375C31.8003 26.5406 31.4817 27.5744 31.2154 28.262C30.8606 29.1731 30.4384 29.8227 29.7555 30.5055C29.0727 31.1884 28.4221 31.6106 27.511 31.9654C26.8234 32.2336 25.7896 32.5503 23.8866 32.6368C21.8295 32.731 21.2113 32.75 15.9995 32.75C10.7897 32.75 10.1715 32.7319 8.11436 32.6368" fill="url(#paint1_radial_119_956)"/>
<path d="M12.0711 16.8182C12.0711 14.6297 13.8447 12.8552 16.0332 12.8552C18.2216 12.8552 19.9962 14.6297 19.9962 16.8182C19.9962 19.0066 18.2216 20.7812 16.0332 20.7812C13.8447 20.7812 12.0711 19.0066 12.0711 16.8182M9.92874 16.8182C9.92874 20.1897 12.6617 22.9226 16.0332 22.9226C19.4046 22.9226 22.1376 20.1897 22.1376 16.8182C22.1376 13.4467 19.4046 10.7138 16.0332 10.7138C12.6617 10.7138 9.92883 13.4465 9.92883 16.8182M20.9527 10.4717C20.9526 10.7539 21.0362 11.0297 21.1929 11.2644C21.3495 11.4991 21.5722 11.682 21.8329 11.7901C22.0935 11.8981 22.3803 11.9265 22.6571 11.8716C22.9338 11.8166 23.1881 11.6809 23.3877 11.4814C23.5873 11.282 23.7232 11.0279 23.7784 10.7512C23.8335 10.4745 23.8054 10.1876 23.6975 9.9269C23.5897 9.66619 23.4069 9.44331 23.1724 9.28646C22.9378 9.12962 22.662 9.04584 22.3799 9.04573H22.3793C22.0011 9.0459 21.6385 9.19618 21.371 9.46355C21.1035 9.73093 20.9531 10.0935 20.9527 10.4717M11.2303 26.4949C10.0713 26.4422 9.44133 26.2491 9.02267 26.086C8.46764 25.8699 8.07162 25.6126 7.65525 25.1968C7.23888 24.781 6.98115 24.3853 6.76602 23.8303C6.60282 23.4118 6.40976 22.7817 6.35707 21.6226C6.29943 20.3695 6.28793 19.9931 6.28793 16.8184C6.28793 13.6437 6.30039 13.2683 6.35707 12.0141C6.40985 10.8551 6.60434 10.2262 6.76602 9.80647C6.9821 9.25144 7.23945 8.85542 7.65525 8.43905C8.07105 8.02268 8.46669 7.76495 9.02267 7.54982C9.44114 7.38662 10.0713 7.19355 11.2303 7.14087C12.4835 7.08323 12.8599 7.07172 16.0332 7.07172C19.2064 7.07172 19.5832 7.08399 20.8374 7.14106C21.9964 7.19384 22.6254 7.38833 23.0451 7.55001C23.6001 7.76514 23.9961 8.02344 24.4125 8.43924C24.8288 8.85504 25.0856 9.25163 25.3017 9.80666C25.4649 10.2251 25.658 10.8553 25.7107 12.0143C25.7683 13.2685 25.7798 13.6439 25.7798 16.8186C25.7798 19.9933 25.7683 20.3686 25.7107 21.6228C25.6579 22.7818 25.4639 23.4118 25.3017 23.8305C25.0856 24.3855 24.8283 24.7815 24.4125 25.1969C23.9967 25.6124 23.6001 25.8701 23.0451 26.0862C22.6266 26.2494 21.9964 26.4424 20.8374 26.4951C19.5843 26.5528 19.2079 26.5643 16.0332 26.5643C12.8585 26.5643 12.4831 26.5528 11.2303 26.4951M11.1319 5.00205C9.86635 5.05968 9.00156 5.26035 8.24633 5.55423C7.46466 5.85771 6.80206 6.26485 6.14042 6.92545C5.47877 7.58605 5.07267 8.24874 4.76919 9.03136C4.47532 9.78707 4.27465 10.6514 4.21701 11.9169C4.15843 13.1845 4.14502 13.5897 4.14502 16.8182C4.14502 20.0466 4.15843 20.4519 4.21701 21.7194C4.27465 22.9851 4.47532 23.8493 4.76919 24.605C5.07267 25.3867 5.47887 26.0506 6.14042 26.7109C6.80197 27.3712 7.46371 27.7778 8.24633 28.0821C9.00299 28.376 9.86635 28.5767 11.1319 28.6343C12.4001 28.692 12.8047 28.7063 16.0332 28.7063C19.2616 28.7063 19.6668 28.6929 20.9344 28.6343C22.2001 28.5767 23.0643 28.376 23.82 28.0821C24.6016 27.7778 25.2642 27.3715 25.9259 26.7109C26.5875 26.0503 26.9928 25.3867 27.2971 24.605C27.591 23.8493 27.7926 22.985 27.8493 21.7194C27.9069 20.4509 27.9203 20.0466 27.9203 16.8182C27.9203 13.5897 27.9069 13.1845 27.8493 11.9169C27.7917 10.6513 27.591 9.78659 27.2971 9.03136C26.9928 8.2497 26.5865 7.5871 25.9259 6.92545C25.2653 6.26381 24.6016 5.85771 23.8209 5.55423C23.0643 5.26035 22.2 5.05873 20.9353 5.00205C19.6676 4.94413 19.2625 4.93005 16.0346 4.93005C12.8066 4.93005 12.4006 4.94346 11.1324 5.00205" fill="white"/>
</g>
<defs>
<radialGradient id="paint0_radial_119_956" cx="0" cy="0" r="1" gradientUnits="userSpaceOnUse" gradientTransform="translate(2.07101 32.049) scale(40.6281)">
<stop offset="0.09" stop-color="#FA8F21"/>
<stop offset="0.78" stop-color="#D82D7E"/>
</radialGradient>
<radialGradient id="paint1_radial_119_956" cx="0" cy="0" r="1" gradientUnits="userSpaceOnUse" gradientTransform="translate(22.1653 31.0215) scale(35.7531)">
<stop offset="0.64" stop-color="#8C3AAA" stop-opacity="0"/>
<stop offset="1" stop-color="#8C3AAA"/>
</radialGradient>
<clipPath id="clip0_119_956">
<path d="M0 16.75C0 7.91344 7.16344 0.75 16 0.75V0.75C24.8366 0.75 32 7.91344 32 16.75V16.75C32 25.5866 24.8366 32.75 16 32.75V32.75C7.16344 32.75 0 25.5866 0 16.75V16.75Z" fill="white"/>
</clipPath>
</defs>
</svg>