<?xml version="1.0" standalone="yes"?>
<svg xmlns="http://www.w3.org/2000/svg" width="2000" height="1877">
<path style="fill:none" d="M0 0L0 1877L2000 1877L2000 0L0 0z"/>
<path style="fill:#1fe9ad; stroke:none;" d="M983 385.529C966.123 389.424 953.75 410.834 942.95 423C912.667 457.113 882.985 491.761 852.845 526C738.422 655.986 624.363 786.332 510.718 917C479.911 952.422 449.116 987.893 417.95 1023C402.116 1040.84 382.988 1056.34 385.093 1082C386.527 1099.47 405.145 1108.43 418 1117L516 1182.33L870 1418.33L954 1474.33C969.043 1484.36 982.856 1495.91 1002 1491.71C1017.63 1488.29 1032.62 1473.81 1046 1465.42C1081.03 1443.49 1115.55 1420.52 1150 1397.67C1258.65 1325.59 1367.91 1253.91 1478 1184.05C1512.92 1161.89 1547.37 1138.95 1582 1116.34C1597.84 1106 1616.26 1096.7 1615.98 1075C1615.72 1054.82 1596.69 1039.71 1584.09 1026C1554.43 993.747 1525.24 960.888 1496.29 928C1377.79 793.401 1258.47 658.994 1137.09 527C1104.13 491.166 1071.49 454.766 1039.58 418C1024.25 400.337 1009.41 379.434 983 385.529z"/>
<path style="fill:#01ff81; stroke:none;" d="M974 389L975 390L974 389z"/>
<path style="fill:#01ffff; stroke:none;" d="M971 391L972 392L971 391z"/>
<path style="fill:#2ff79a; stroke:none;" d="M966 396L967 397L966 396z"/>
<path style="fill:#01ffff; stroke:none;" d="M965 397L966 398L965 397z"/>
<path style="fill:#01ff81; stroke:none;" d="M1023 400L1024 401L1023 400z"/>
<path style="fill:#2ff79a; stroke:none;" d="M959 404L960 405L959 404z"/>
<path style="fill:#01ffff; stroke:none;" d="M958 405L959 406L958 405z"/>
<path style="fill:#01ff81; stroke:none;" d="M1031 409L1032 410L1031 409z"/>
<path style="fill:#01ffff; stroke:none;" d="M1032 410L1033 411L1032 410z"/>
<path style="fill:#2ff79a; stroke:none;" d="M952 412L953 413L952 412z"/>
<path style="fill:#01ffff; stroke:none;" d="M951 413L952 414L951 413z"/>
<path style="fill:#01ff81; stroke:none;" d="M1040 419L1041 420L1040 419z"/>
<path style="fill:#2ff79a; stroke:none;" d="M945 420L946 421L945 420z"/>
<path style="fill:#01ffff; stroke:none;" d="M944 421L945 422L944 421z"/>
<path style="fill:#2ff79a; stroke:none;" d="M938 428L939 429L938 428M1048 428L1049 429L1048 428z"/>
<path style="fill:#01ffff; stroke:none;" d="M937 429L938 430L937 429M1049 429L1050 430L1049 429z"/>
<path style="fill:#2ff79a; stroke:none;" d="M931 436L932 437L931 436z"/>
<path style="fill:#01ffff; stroke:none;" d="M930 437L931 438L930 437z"/>
<path style="fill:#01ff81; stroke:none;" d="M1057 438L1058 439L1057 438z"/>
<path style="fill:#2ff79a; stroke:none;" d="M924 444L925 445L924 444z"/>
<path style="fill:#01ffff; stroke:none;" d="M923 445L924 446L923 445z"/>
<path style="fill:#01ff81; stroke:none;" d="M1066 448L1067 449L1066 448z"/>
<path style="fill:#2ff79a; stroke:none;" d="M917 452L918 453L917 452z"/>
<path style="fill:#01ffff; stroke:none;" d="M916 453L917 454L916 453z"/>
<path style="fill:#01ff81; stroke:none;" d="M1074 457L1075 458L1074 457z"/>
<path style="fill:#01ffff; stroke:none;" d="M1075 458L1076 459L1075 458z"/>
<path style="fill:#2ff79a; stroke:none;" d="M910 460L911 461L910 460z"/>
<path style="fill:#01ffff; stroke:none;" d="M909 461L910 462L909 461z"/>
<path style="fill:#01ff81; stroke:none;" d="M1083 467L1084 468L1083 467z"/>
<path style="fill:#2ff79a; stroke:none;" d="M903 468L904 469L903 468z"/>
<path style="fill:#01ffff; stroke:none;" d="M902 469L903 470L902 469z"/>
<path style="fill:#2ff79a; stroke:none;" d="M896 476L897 477L896 476M1091 476L1092 477L1091 476z"/>
<path style="fill:#01ffff; stroke:none;" d="M895 477L896 478L895 477M1092 477L1093 478L1092 477z"/>
<path style="fill:#2ff79a; stroke:none;" d="M889 484L890 485L889 484z"/>
<path style="fill:#01ffff; stroke:none;" d="M888 485L889 486L888 485z"/>
<path style="fill:#01ff81; stroke:none;" d="M1100 486L1101 487L1100 486z"/>
<path style="fill:#262626; stroke:none;" d="M1007 487L1007 1407C1024.96 1400.19 1041.86 1385.09 1058 1374.69C1093.78 1351.65 1129.47 1328.43 1165 1305C1239.69 1255.76 1315.09 1207.56 1390 1158.66C1435.6 1128.89 1480.43 1095.49 1528 1069L1510.29 1048L1468.17 1001L1348.17 867L1117.17 609L1040.09 523L1007 487z"/>
<path style="fill:#01ffff; stroke:none;" d="M978 488L979 489L978 488z"/>
<path style="fill:#262626; stroke:none;" d="M978 489L857.845 626L627.718 889L521.845 1010L487.718 1049L472 1069L806 1292L920 1368L979 1407L979 755L979 567L979 513L978 489z"/>
<path style="fill:#2ff79a; stroke:none;" d="M882 492L883 493L882 492z"/>
<path style="fill:#01ff81; stroke:none;" d="M1012 492L1013 493L1012 492z"/>
<path style="fill:#01ffff; stroke:none;" d="M881 493L882 494L881 493M971 496L972 497L971 496z"/>
<path style="fill:#01ff81; stroke:none;" d="M1109 496L1110 497L1109 496z"/>
<path style="fill:#2ff79a; stroke:none;" d="M875 500L876 501L875 500z"/>
<path style="fill:#01ffff; stroke:none;" d="M874 501L875 502L874 501M1020 501L1021 502L1020 501z"/>
<path style="fill:#2ff79a; stroke:none;" d="M1021 502L1022 503L1021 502z"/>
<path style="fill:#01ffff; stroke:none;" d="M964 504L965 505L964 504z"/>
<path style="fill:#01ff81; stroke:none;" d="M1117 505L1118 506L1117 505z"/>
<path style="fill:#01ffff; stroke:none;" d="M1118 506L1119 507L1118 506z"/>
<path style="fill:#2ff79a; stroke:none;" d="M868 508L869 509L868 508z"/>
<path style="fill:#01ffff; stroke:none;" d="M867 509L868 510L867 509z"/>
<path style="fill:#01ff81; stroke:none;" d="M1029 511L1030 512L1029 511z"/>
<path style="fill:#01ffff; stroke:none;" d="M957 512L958 513L957 512z"/>
<path style="fill:#01ff81; stroke:none;" d="M1126 515L1127 516L1126 515z"/>
<path style="fill:#2ff79a; stroke:none;" d="M861 516L862 517L861 516z"/>
<path style="fill:#01ffff; stroke:none;" d="M860 517L861 518L860 517M950 520L951 521L950 520M1037 520L1038 521L1037 520z"/>
<path style="fill:#01ff81; stroke:none;" d="M1038 521L1039 522L1038 521z"/>
<path style="fill:#2ff79a; stroke:none;" d="M854 524L855 525L854 524M1134 524L1135 525L1134 524z"/>
<path style="fill:#01ffff; stroke:none;" d="M853 525L854 526L853 525M1135 525L1136 526L1135 525M943 528L944 529L943 528z"/>
<path style="fill:#01ff81; stroke:none;" d="M1046 530L1047 531L1046 530z"/>
<path style="fill:#2ff79a; stroke:none;" d="M847 532L848 533L847 532z"/>
<path style="fill:#01ffff; stroke:none;" d="M846 533L847 534L846 533z"/>
<path style="fill:#01ff81; stroke:none;" d="M1143 534L1144 535L1143 534z"/>
<path style="fill:#01ffff; stroke:none;" d="M936 536L937 537L936 536z"/>
<path style="fill:#2ff79a; stroke:none;" d="M840 540L841 541L840 540z"/>
<path style="fill:#01ff81; stroke:none;" d="M1055 540L1056 541L1055 540z"/>
<path style="fill:#01ffff; stroke:none;" d="M839 541L840 542L839 541M929 544L930 545L929 544z"/>
<path style="fill:#01ff81; stroke:none;" d="M1152 544L1153 545L1152 544z"/>
<path style="fill:#2ff79a; stroke:none;" d="M833 548L834 549L833 548z"/>
<path style="fill:#01ffff; stroke:none;" d="M832 549L833 550L832 549M1063 549L1064 550L1063 549M922 552L923 553L922 552z"/>
<path style="fill:#01ff81; stroke:none;" d="M1160 553L1161 554L1160 553z"/>
<path style="fill:#01ffff; stroke:none;" d="M1161 554L1162 555L1161 554z"/>
<path style="fill:#2ff79a; stroke:none;" d="M826 556L827 557L826 556z"/>
<path style="fill:#01ffff; stroke:none;" d="M825 557L826 558L825 557z"/>
<path style="fill:#01ff81; stroke:none;" d="M1072 559L1073 560L1072 559z"/>
<path style="fill:#01ffff; stroke:none;" d="M915 560L916 561L915 560z"/>
<path style="fill:#01ff81; stroke:none;" d="M1169 563L1170 564L1169 563z"/>
<path style="fill:#2ff79a; stroke:none;" d="M819 564L820 565L819 564z"/>
<path style="fill:#01ffff; stroke:none;" d="M818 565L819 566L818 565M908 568L909 569L908 568M1080 568L1081 569L1080 568z"/>
<path style="fill:#2ff79a; stroke:none;" d="M1081 569L1082 570L1081 569M812 572L813 573L812 572M1177 572L1178 573L1177 572z"/>
<path style="fill:#01ffff; stroke:none;" d="M811 573L812 574L811 573M1178 573L1179 574L1178 573M901 576L902 577L901 576z"/>
<path style="fill:#01ff81; stroke:none;" d="M1089 578L1090 579L1089 578z"/>
<path style="fill:#2ff79a; stroke:none;" d="M805 580L806 581L805 580z"/>
<path style="fill:#01ffff; stroke:none;" d="M804 581L805 582L804 581z"/>
<path style="fill:#01ff81; stroke:none;" d="M1186 582L1187 583L1186 582z"/>
<path style="fill:#01ffff; stroke:none;" d="M894 584L895 585L894 584M1097 587L1098 588L1097 587z"/>
<path style="fill:#2ff79a; stroke:none;" d="M798 588L799 589L798 588z"/>
<path style="fill:#01ff81; stroke:none;" d="M1098 588L1099 589L1098 588z"/>
<path style="fill:#01ffff; stroke:none;" d="M797 589L798 590L797 589M887 592L888 593L887 592M1195 592L1196 593L1195 592z"/>
<path style="fill:#2ff79a; stroke:none;" d="M791 596L792 597L791 596z"/>
<path style="fill:#01ffff; stroke:none;" d="M790 597L791 598L790 597z"/>
<path style="fill:#01ff81; stroke:none;" d="M1106 597L1107 598L1106 597z"/>
<path style="fill:#01ffff; stroke:none;" d="M880 600L881 601L880 600z"/>
<path style="fill:#01ff81; stroke:none;" d="M1203 601L1204 602L1203 601z"/>
<path style="fill:#01ffff; stroke:none;" d="M1204 602L1205 603L1204 602z"/>
<path style="fill:#2ff79a; stroke:none;" d="M784 604L785 605L784 604z"/>
<path style="fill:#01ffff; stroke:none;" d="M783 605L784 606L783 605z"/>
<path style="fill:#01ff81; stroke:none;" d="M1115 607L1116 608L1115 607z"/>
<path style="fill:#01ffff; stroke:none;" d="M873 608L874 609L873 608z"/>
<path style="fill:#01ff81; stroke:none;" d="M1212 611L1213 612L1212 611z"/>
<path style="fill:#2ff79a; stroke:none;" d="M777 612L778 613L777 612z"/>
<path style="fill:#01ffff; stroke:none;" d="M776 613L777 614L776 613M866 616L867 617L866 616M1123 616L1124 617L1123 616z"/>
<path style="fill:#2ff79a; stroke:none;" d="M1124 617L1125 618L1124 617M770 620L771 621L770 620M1220 620L1221 621L1220 620z"/>
<path style="fill:#01ffff; stroke:none;" d="M769 621L770 622L769 621M1221 621L1222 622L1221 621M859 624L860 625L859 624z"/>
<path style="fill:#01ff81; stroke:none;" d="M1132 626L1133 627L1132 626z"/>
<path style="fill:#2ff79a; stroke:none;" d="M763 628L764 629L763 628z"/>
<path style="fill:#01ffff; stroke:none;" d="M762 629L763 630L762 629z"/>
<path style="fill:#01ff81; stroke:none;" d="M1229 630L1230 631L1229 630z"/>
<path style="fill:#01ffff; stroke:none;" d="M852 632L853 633L852 632M1140 635L1141 636L1140 635z"/>
<path style="fill:#2ff79a; stroke:none;" d="M756 636L757 637L756 636z"/>
<path style="fill:#01ff81; stroke:none;" d="M1141 636L1142 637L1141 636z"/>
<path style="fill:#01ffff; stroke:none;" d="M845 640L846 641L845 640M1238 640L1239 641L1238 640z"/>
<path style="fill:#2ff79a; stroke:none;" d="M749 644L750 645L749 644z"/>
<path style="fill:#01ff81; stroke:none;" d="M1149 645L1150 646L1149 645z"/>
<path style="fill:#01ffff; stroke:none;" d="M838 648L839 649L838 648z"/>
<path style="fill:#01ff81; stroke:none;" d="M1246 649L1247 650L1246 649z"/>
<path style="fill:#2ff79a; stroke:none;" d="M742 652L743 653L742 652z"/>
<path style="fill:#01ff81; stroke:none;" d="M1158 655L1159 656L1158 655z"/>
<path style="fill:#01ffff; stroke:none;" d="M831 656L832 657L831 656z"/>
<path style="fill:#01ff81; stroke:none;" d="M1255 659L1256 660L1255 659z"/>
<path style="fill:#2ff79a; stroke:none;" d="M735 660L736 661L735 660z"/>
<path style="fill:#01ffff; stroke:none;" d="M824 664L825 665L824 664M1166 664L1167 665L1166 664z"/>
<path style="fill:#2ff79a; stroke:none;" d="M728 668L729 669L728 668M1263 668L1264 669L1263 668z"/>
<path style="fill:#01ffff; stroke:none;" d="M1264 669L1265 670L1264 669M817 672L818 673L817 672z"/>
<path style="fill:#01ff81; stroke:none;" d="M1175 674L1176 675L1175 674z"/>
<path style="fill:#2ff79a; stroke:none;" d="M721 676L722 677L721 676z"/>
<path style="fill:#01ff81; stroke:none;" d="M1272 678L1273 679L1272 678z"/>
<path style="fill:#01ffff; stroke:none;" d="M810 680L811 681L810 680M1183 683L1184 684L1183 683z"/>
<path style="fill:#2ff79a; stroke:none;" d="M714 684L715 685L714 684M1184 684L1185 685L1184 684z"/>
<path style="fill:#01ffff; stroke:none;" d="M803 688L804 689L803 688M1281 688L1282 689L1281 688z"/>
<path style="fill:#2ff79a; stroke:none;" d="M707 692L708 693L707 692z"/>
<path style="fill:#01ff81; stroke:none;" d="M1192 693L1193 694L1192 693z"/>
<path style="fill:#01ffff; stroke:none;" d="M796 696L797 697L796 696z"/>
<path style="fill:#01ff81; stroke:none;" d="M1289 697L1290 698L1289 697z"/>
<path style="fill:#2ff79a; stroke:none;" d="M700 700L701 701L700 700z"/>
<path style="fill:#01ffff; stroke:none;" d="M1200 702L1201 703L1200 702z"/>
<path style="fill:#01ff81; stroke:none;" d="M1201 703L1202 704L1201 703z"/>
<path style="fill:#01ffff; stroke:none;" d="M789 704L790 705L789 704z"/>
<path style="fill:#01ff81; stroke:none;" d="M1298 707L1299 708L1298 707z"/>
<path style="fill:#2ff79a; stroke:none;" d="M693 708L694 709L693 708z"/>
<path style="fill:#01ffff; stroke:none;" d="M782 712L783 713L782 712z"/>
<path style="fill:#01ff81; stroke:none;" d="M1209 712L1210 713L1209 712z"/>
<path style="fill:#2ff79a; stroke:none;" d="M686 716L687 717L686 716M1306 716L1307 717L1306 716z"/>
<path style="fill:#01ffff; stroke:none;" d="M1307 717L1308 718L1307 717M775 720L776 721L775 720z"/>
<path style="fill:#01ff81; stroke:none;" d="M1218 722L1219 723L1218 722z"/>
<path style="fill:#2ff79a; stroke:none;" d="M679 724L680 725L679 724z"/>
<path style="fill:#01ff81; stroke:none;" d="M1315 726L1316 727L1315 726z"/>
<path style="fill:#01ffff; stroke:none;" d="M768 728L769 729L768 728M1226 731L1227 732L1226 731z"/>
<path style="fill:#2ff79a; stroke:none;" d="M672 732L673 733L672 732M1227 732L1228 733L1227 732z"/>
<path style="fill:#01ffff; stroke:none;" d="M761 736L762 737L761 736M1324 736L1325 737L1324 736z"/>
<path style="fill:#2ff79a; stroke:none;" d="M665 740L666 741L665 740z"/>
<path style="fill:#01ff81; stroke:none;" d="M1235 741L1236 742L1235 741z"/>
<path style="fill:#01ffff; stroke:none;" d="M754 744L755 745L754 744z"/>
<path style="fill:#01ff81; stroke:none;" d="M1332 745L1333 746L1332 745z"/>
<path style="fill:#2ff79a; stroke:none;" d="M658 748L659 749L658 748z"/>
<path style="fill:#01ffff; stroke:none;" d="M1243 750L1244 751L1243 750z"/>
<path style="fill:#2ff79a; stroke:none;" d="M1244 751L1245 752L1244 751z"/>
<path style="fill:#01ffff; stroke:none;" d="M747 752L748 753L747 752z"/>
<path style="fill:#01ff81; stroke:none;" d="M1341 755L1342 756L1341 755z"/>
<path style="fill:#2ff79a; stroke:none;" d="M651 756L652 757L651 756z"/>
<path style="fill:#01ffff; stroke:none;" d="M740 760L741 761L740 760z"/>
<path style="fill:#01ff81; stroke:none;" d="M1252 760L1253 761L1252 760z"/>
<path style="fill:#2ff79a; stroke:none;" d="M644 764L645 765L644 764M1349 764L1350 765L1349 764z"/>
<path style="fill:#01ffff; stroke:none;" d="M1350 765L1351 766L1350 765M733 768L734 769L733 768z"/>
<path style="fill:#01ff81; stroke:none;" d="M1261 770L1262 771L1261 770z"/>
<path style="fill:#2ff79a; stroke:none;" d="M637 772L638 773L637 772z"/>
<path style="fill:#01ff81; stroke:none;" d="M1358 774L1359 775L1358 774z"/>
<path style="fill:#01ffff; stroke:none;" d="M726 776L727 777L726 776M1269 779L1270 780L1269 779z"/>
<path style="fill:#2ff79a; stroke:none;" d="M630 780L631 781L630 780z"/>
<path style="fill:#01ffff; stroke:none;" d="M719 784L720 785L719 784M1367 784L1368 785L1367 784z"/>
<path style="fill:#2ff79a; stroke:none;" d="M623 788L624 789L623 788z"/>
<path style="fill:#01ff81; stroke:none;" d="M1278 789L1279 790L1278 789z"/>
<path style="fill:#01ffff; stroke:none;" d="M712 792L713 793L712 792z"/>
<path style="fill:#01ff81; stroke:none;" d="M1375 793L1376 794L1375 793z"/>
<path style="fill:#2ff79a; stroke:none;" d="M616 796L617 797L616 796z"/>
<path style="fill:#01ffff; stroke:none;" d="M1286 798L1287 799L1286 798z"/>
<path style="fill:#2ff79a; stroke:none;" d="M1287 799L1288 800L1287 799z"/>
<path style="fill:#01ffff; stroke:none;" d="M705 800L706 801L705 800z"/>
<path style="fill:#01ff81; stroke:none;" d="M1384 803L1385 804L1384 803z"/>
<path style="fill:#2ff79a; stroke:none;" d="M609 804L610 805L609 804z"/>
<path style="fill:#01ffff; stroke:none;" d="M698 808L699 809L698 808z"/>
<path style="fill:#01ff81; stroke:none;" d="M1295 808L1296 809L1295 808z"/>
<path style="fill:#2ff79a; stroke:none;" d="M602 812L603 813L602 812z"/>
<path style="fill:#01ff81; stroke:none;" d="M1392 812L1393 813L1392 812z"/>
<path style="fill:#01ffff; stroke:none;" d="M1393 813L1394 814L1393 813M691 816L692 817L691 816M1303 817L1304 818L1303 817z"/>
<path style="fill:#01ff81; stroke:none;" d="M1304 818L1305 819L1304 818z"/>
<path style="fill:#2ff79a; stroke:none;" d="M595 820L596 821L595 820z"/>
<path style="fill:#01ff81; stroke:none;" d="M1401 822L1402 823L1401 822z"/>
<path style="fill:#01ffff; stroke:none;" d="M684 824L685 825L684 824z"/>
<path style="fill:#01ff81; stroke:none;" d="M1312 827L1313 828L1312 827z"/>
<path style="fill:#2ff79a; stroke:none;" d="M588 828L589 829L588 828z"/>
<path style="fill:#01ffff; stroke:none;" d="M677 832L678 833L677 832M1410 832L1411 833L1410 832z"/>
<path style="fill:#2ff79a; stroke:none;" d="M581 836L582 837L581 836z"/>
<path style="fill:#01ff81; stroke:none;" d="M1321 837L1322 838L1321 837z"/>
<path style="fill:#01ffff; stroke:none;" d="M670 840L671 841L670 840z"/>
<path style="fill:#01ff81; stroke:none;" d="M1418 841L1419 842L1418 841z"/>
<path style="fill:#2ff79a; stroke:none;" d="M574 844L575 845L574 844z"/>
<path style="fill:#01ffff; stroke:none;" d="M1329 846L1330 847L1329 846M663 848L664 849L663 848z"/>
<path style="fill:#01ff81; stroke:none;" d="M1427 851L1428 852L1427 851z"/>
<path style="fill:#2ff79a; stroke:none;" d="M567 852L568 853L567 852z"/>
<path style="fill:#01ffff; stroke:none;" d="M656 856L657 857L656 856z"/>
<path style="fill:#01ff81; stroke:none;" d="M1338 856L1339 857L1338 856M560 860L561 861L560 860M1435 860L1436 861L1435 860z"/>
<path style="fill:#01ffff; stroke:none;" d="M1436 861L1437 862L1436 861M649 864L650 865L649 864M1346 865L1347 866L1346 865z"/>
<path style="fill:#2ff79a; stroke:none;" d="M1347 866L1348 867L1347 866z"/>
<path style="fill:#01ff81; stroke:none;" d="M553 868L554 869L553 868M1444 870L1445 871L1444 870z"/>
<path style="fill:#01ffff; stroke:none;" d="M642 872L643 873L642 872z"/>
<path style="fill:#01ff81; stroke:none;" d="M1355 875L1356 876L1355 875M546 876L547 877L546 876z"/>
<path style="fill:#2ff79a; stroke:none;" d="M1452 879L1453 880L1452 879z"/>
<path style="fill:#01ffff; stroke:none;" d="M635 880L636 881L635 880M1453 880L1454 881L1453 880z"/>
<path style="fill:#01ff81; stroke:none;" d="M539 884L540 885L539 884z"/>
<path style="fill:#01ffff; stroke:none;" d="M1363 884L1364 885L1363 884z"/>
<path style="fill:#01ff81; stroke:none;" d="M1364 885L1365 886L1364 885z"/>
<path style="fill:#01ffff; stroke:none;" d="M628 888L629 889L628 888z"/>
<path style="fill:#01ff81; stroke:none;" d="M1461 889L1462 890L1461 889M532 892L533 893L532 892M1372 894L1373 895L1372 894z"/>
<path style="fill:#01ffff; stroke:none;" d="M621 896L622 897L621 896z"/>
<path style="fill:#01ff81; stroke:none;" d="M1470 899L1471 900L1470 899M525 900L526 901L525 900z"/>
<path style="fill:#01ffff; stroke:none;" d="M614 904L615 905L614 904z"/>
<path style="fill:#01ff81; stroke:none;" d="M1381 904L1382 905L1381 904M518 908L519 909L518 908M1478 908L1479 909L1478 908z"/>
<path style="fill:#01ffff; stroke:none;" d="M1479 909L1480 910L1479 909M607 912L608 913L607 912M1389 913L1390 914L1389 913z"/>
<path style="fill:#2ff79a; stroke:none;" d="M1390 914L1391 915L1390 914z"/>
<path style="fill:#01ff81; stroke:none;" d="M511 916L512 917L511 916M1487 918L1488 919L1487 918z"/>
<path style="fill:#01ffff; stroke:none;" d="M600 920L601 921L600 920z"/>
<path style="fill:#01ff81; stroke:none;" d="M1398 923L1399 924L1398 923M504 924L505 925L504 924z"/>
<path style="fill:#2ff79a; stroke:none;" d="M1495 927L1496 928L1495 927z"/>
<path style="fill:#01ffff; stroke:none;" d="M593 928L594 929L593 928M1496 928L1497 929L1496 928z"/>
<path style="fill:#01ff81; stroke:none;" d="M497 932L498 933L497 932z"/>
<path style="fill:#01ffff; stroke:none;" d="M1406 932L1407 933L1406 932z"/>
<path style="fill:#01ff81; stroke:none;" d="M1407 933L1408 934L1407 933z"/>
<path style="fill:#01ffff; stroke:none;" d="M586 936L587 937L586 936z"/>
<path style="fill:#01ff81; stroke:none;" d="M1504 937L1505 938L1504 937M490 940L491 941L490 940M1415 942L1416 943L1415 942z"/>
<path style="fill:#01ffff; stroke:none;" d="M579 944L580 945L579 944z"/>
<path style="fill:#01ff81; stroke:none;" d="M1513 947L1514 948L1513 947M483 948L484 949L483 948z"/>
<path style="fill:#01ffff; stroke:none;" d="M572 952L573 953L572 952z"/>
<path style="fill:#01ff81; stroke:none;" d="M1424 952L1425 953L1424 952M476 956L477 957L476 956M1521 956L1522 957L1521 956z"/>
<path style="fill:#01ffff; stroke:none;" d="M1522 957L1523 958L1522 957M565 960L566 961L565 960M1432 961L1433 962L1432 961z"/>
<path style="fill:#01ff81; stroke:none;" d="M469 964L470 965L469 964M1530 966L1531 967L1530 966z"/>
<path style="fill:#01ffff; stroke:none;" d="M558 968L559 969L558 968z"/>
<path style="fill:#01ff81; stroke:none;" d="M1441 971L1442 972L1441 971M462 972L463 973L462 972z"/>
<path style="fill:#2ff79a; stroke:none;" d="M1538 975L1539 976L1538 975z"/>
<path style="fill:#01ffff; stroke:none;" d="M551 976L552 977L551 976M1539 976L1540 977L1539 976z"/>
<path style="fill:#01ff81; stroke:none;" d="M455 980L456 981L455 980z"/>
<path style="fill:#01ffff; stroke:none;" d="M1449 980L1450 981L1449 980z"/>
<path style="fill:#2ff79a; stroke:none;" d="M1450 981L1451 982L1450 981z"/>
<path style="fill:#01ffff; stroke:none;" d="M544 984L545 985L544 984z"/>
<path style="fill:#01ff81; stroke:none;" d="M1547 985L1548 986L1547 985M448 988L449 989L448 988M1458 990L1459 991L1458 990z"/>
<path style="fill:#01ffff; stroke:none;" d="M537 992L538 993L537 992z"/>
<path style="fill:#01ff81; stroke:none;" d="M1556 995L1557 996L1556 995M441 996L442 997L441 996z"/>
<path style="fill:#01ffff; stroke:none;" d="M1466 999L1467 1000L1466 999M530 1000L531 1001L530 1000z"/>
<path style="fill:#01ff81; stroke:none;" d="M1467 1000L1468 1001L1467 1000M434 1004L435 1005L434 1004M1564 1004L1565 1005L1564 1004z"/>
<path style="fill:#01ffff; stroke:none;" d="M1565 1005L1566 1006L1565 1005M523 1008L524 1009L523 1008z"/>
<path style="fill:#01ff81; stroke:none;" d="M1475 1009L1476 1010L1475 1009M427 1012L428 1013L427 1012M1573 1014L1574 1015L1573 1014z"/>
<path style="fill:#01ffff; stroke:none;" d="M516 1016L517 1017L516 1016z"/>
<path style="fill:#01ff81; stroke:none;" d="M1484 1019L1485 1020L1484 1019M420 1020L421 1021L420 1020z"/>
<path style="fill:#2ff79a; stroke:none;" d="M1581 1023L1582 1024L1581 1023z"/>
<path style="fill:#01ffff; stroke:none;" d="M509 1024L510 1025L509 1024M1582 1024L1583 1025L1582 1024z"/>
<path style="fill:#01ff81; stroke:none;" d="M413 1028L414 1029L413 1028z"/>
<path style="fill:#01ffff; stroke:none;" d="M1492 1028L1493 1029L1492 1028z"/>
<path style="fill:#2ff79a; stroke:none;" d="M1493 1029L1494 1030L1493 1029z"/>
<path style="fill:#01ffff; stroke:none;" d="M502 1032L503 1033L502 1032z"/>
<path style="fill:#01ff81; stroke:none;" d="M1590 1033L1591 1034L1590 1033M406 1036L407 1037L406 1036M1501 1038L1502 1039L1501 1038z"/>
<path style="fill:#01ffff; stroke:none;" d="M495 1040L496 1041L495 1040z"/>
<path style="fill:#01ff81; stroke:none;" d="M1599 1043L1600 1044L1599 1043M399 1044L400 1045L399 1044z"/>
<path style="fill:#01ffff; stroke:none;" d="M1509 1047L1510 1048L1509 1047M488 1048L489 1049L488 1048z"/>
<path style="fill:#2ff79a; stroke:none;" d="M1510 1048L1511 1049L1510 1048z"/>
<path style="fill:#01ff81; stroke:none;" d="M392 1052L393 1053L392 1052M1607 1052L1608 1053L1607 1052z"/>
<path style="fill:#01ffff; stroke:none;" d="M481 1056L482 1057L481 1056M1610 1056L1611 1057L1610 1056z"/>
<path style="fill:#01ff81; stroke:none;" d="M1518 1057L1519 1058L1518 1057M388 1058L389 1059L388 1058z"/>
<path style="fill:#2ff79a; stroke:none;" d="M387 1060L388 1061L387 1060z"/>
<path style="fill:#01ffff; stroke:none;" d="M474 1064L475 1065L474 1064z"/>
<path style="fill:#01ff81; stroke:none;" d="M1614 1065L1615 1066L1614 1065M1527 1067L1528 1068L1527 1067z"/>
<path style="fill:#01ffff; stroke:none;" d="M471 1068L472 1069L471 1068M474 1070L475 1071L474 1070M477 1072L478 1073L477 1072M480 1074L481 1075L480 1074M483 1076L484 1077L483 1076M486 1078L487 1079L486 1078M1512 1078L1513 1079L1512 1078M489 1080L490 1081L489 1080z"/>
<path style="fill:#01ff81; stroke:none;" d="M1509 1080L1510 1081L1509 1080z"/>
<path style="fill:#01ffff; stroke:none;" d="M492 1082L493 1083L492 1082M495 1084L496 1085L495 1084M498 1086L499 1087L498 1086M501 1088L502 1089L501 1088M504 1090L505 1091L504 1090M1492 1091L1493 1092L1492 1091M507 1092L508 1093L507 1092z"/>
<path style="fill:#01ff81; stroke:none;" d="M1489 1093L1490 1094L1489 1093z"/>
<path style="fill:#01ffff; stroke:none;" d="M510 1094L511 1095L510 1094z"/>
<path style="fill:#2ff79a; stroke:none;" d="M1486 1095L1487 1096L1486 1095z"/>
<path style="fill:#01ffff; stroke:none;" d="M513 1096L514 1097L513 1096M516 1098L517 1099L516 1098M519 1100L520 1101L519 1100M522 1102L523 1103L522 1102z"/>
<path style="fill:#01ff81; stroke:none;" d="M398 1103L399 1104L398 1103z"/>
<path style="fill:#01ffff; stroke:none;" d="M525 1104L526 1105L525 1104M528 1106L529 1107L528 1106M1469 1106L1470 1107L1469 1106M531 1108L532 1109L531 1108z"/>
<path style="fill:#01ff81; stroke:none;" d="M1466 1108L1467 1109L1466 1108z"/>
<path style="fill:#01ffff; stroke:none;" d="M534 1110L535 1111L534 1110M537 1112L538 1113L537 1112M540 1114L541 1115L540 1114z"/>
<path style="fill:#01ff81; stroke:none;" d="M1584 1114L1585 1115L1584 1114z"/>
<path style="fill:#01ffff; stroke:none;" d="M543 1116L544 1117L543 1116z"/>
<path style="fill:#01ff81; stroke:none;" d="M1581 1116L1582 1117L1581 1116z"/>
<path style="fill:#01ffff; stroke:none;" d="M546 1118L547 1119L546 1118M1449 1119L1450 1120L1449 1119M549 1120L550 1121L549 1120z"/>
<path style="fill:#01ff81; stroke:none;" d="M1446 1121L1447 1122L1446 1121z"/>
<path style="fill:#01ffff; stroke:none;" d="M552 1122L553 1123L552 1122z"/>
<path style="fill:#2ff79a; stroke:none;" d="M1443 1123L1444 1124L1443 1123z"/>
<path style="fill:#01ffff; stroke:none;" d="M555 1124L556 1125L555 1124M558 1126L559 1127L558 1126z"/>
<path style="fill:#2ff79a; stroke:none;" d="M1564 1127L1565 1128L1564 1127z"/>
<path style="fill:#01ffff; stroke:none;" d="M561 1128L562 1129L561 1128z"/>
<path style="fill:#01ff81; stroke:none;" d="M1561 1129L1562 1130L1561 1129z"/>
<path style="fill:#01ffff; stroke:none;" d="M564 1130L565 1131L564 1130M1558 1131L1559 1132L1558 1131M567 1132L568 1133L567 1132M570 1134L571 1135L570 1134M1426 1134L1427 1135L1426 1134M573 1136L574 1137L573 1136z"/>
<path style="fill:#01ff81; stroke:none;" d="M1423 1136L1424 1137L1423 1136z"/>
<path style="fill:#01ffff; stroke:none;" d="M576 1138L577 1139L576 1138z"/>
<path style="fill:#01ff81; stroke:none;" d="M1541 1142L1542 1143L1541 1142M1538 1144L1539 1145L1538 1144z"/>
<path style="fill:#01ffff; stroke:none;" d="M1406 1147L1407 1148L1406 1147z"/>
<path style="fill:#01ff81; stroke:none;" d="M1403 1149L1404 1150L1403 1149M1400 1151L1401 1152L1400 1151z"/>
<path style="fill:#2ff79a; stroke:none;" d="M1521 1155L1522 1156L1521 1155z"/>
<path style="fill:#01ff81; stroke:none;" d="M1518 1157L1519 1158L1518 1157z"/>
<path style="fill:#01ffff; stroke:none;" d="M1515 1159L1516 1160L1515 1159M1383 1162L1384 1163L1383 1162z"/>
<path style="fill:#01ff81; stroke:none;" d="M1380 1164L1381 1165L1380 1164M1498 1170L1499 1171L1498 1170M1495 1172L1496 1173L1495 1172z"/>
<path style="fill:#01ffff; stroke:none;" d="M1363 1175L1364 1176L1363 1175z"/>
<path style="fill:#01ff81; stroke:none;" d="M1360 1177L1361 1178L1360 1177M1357 1179L1358 1180L1357 1179z"/>
<path style="fill:#2ff79a; stroke:none;" d="M1478 1183L1479 1184L1478 1183z"/>
<path style="fill:#01ff81; stroke:none;" d="M1475 1185L1476 1186L1475 1185z"/>
<path style="fill:#01ffff; stroke:none;" d="M1472 1187L1473 1188L1472 1187M1340 1190L1341 1191L1340 1190z"/>
<path style="fill:#01ff81; stroke:none;" d="M1337 1192L1338 1193L1337 1192M1455 1198L1456 1199L1455 1198M1452 1200L1453 1201L1452 1200z"/>
<path style="fill:#01ffff; stroke:none;" d="M1320 1203L1321 1204L1320 1203z"/>
<path style="fill:#01ff81; stroke:none;" d="M1317 1205L1318 1206L1317 1205M1314 1207L1315 1208L1314 1207z"/>
<path style="fill:#2ff79a; stroke:none;" d="M1435 1211L1436 1212L1435 1211z"/>
<path style="fill:#01ff81; stroke:none;" d="M1432 1213L1433 1214L1432 1213z"/>
<path style="fill:#01ffff; stroke:none;" d="M1429 1215L1430 1216L1429 1215M1297 1218L1298 1219L1297 1218z"/>
<path style="fill:#01ff81; stroke:none;" d="M1294 1220L1295 1221L1294 1220z"/>
<path style="fill:#2ff79a; stroke:none;" d="M1291 1222L1292 1223L1291 1222z"/>
<path style="fill:#01ff81; stroke:none;" d="M1412 1226L1413 1227L1412 1226M1409 1228L1410 1229L1409 1228M1274 1233L1275 1234L1274 1233M1271 1235L1272 1236L1271 1235z"/>
<path style="fill:#2ff79a; stroke:none;" d="M1392 1239L1393 1240L1392 1239z"/>
<path style="fill:#01ff81; stroke:none;" d="M1389 1241L1390 1242L1389 1241z"/>
<path style="fill:#01ffff; stroke:none;" d="M1386 1243L1387 1244L1386 1243M1254 1246L1255 1247L1254 1246z"/>
<path style="fill:#01ff81; stroke:none;" d="M1251 1248L1252 1249L1251 1248z"/>
<path style="fill:#2ff79a; stroke:none;" d="M1248 1250L1249 1251L1248 1250z"/>
<path style="fill:#01ff81; stroke:none;" d="M1369 1254L1370 1255L1369 1254M1366 1256L1367 1257L1366 1256z"/>
<path style="fill:#01ffff; stroke:none;" d="M1363 1258L1364 1259L1363 1258z"/>
<path style="fill:#01ff81; stroke:none;" d="M1231 1261L1232 1262L1231 1261M1228 1263L1229 1264L1228 1263M1346 1269L1347 1270L1346 1269z"/>
<path style="fill:#01ffff; stroke:none;" d="M1343 1271L1344 1272L1343 1271M1211 1274L1212 1275L1211 1274z"/>
<path style="fill:#01ff81; stroke:none;" d="M1208 1276L1209 1277L1208 1276z"/>
<path style="fill:#2ff79a; stroke:none;" d="M1205 1278L1206 1279L1205 1278z"/>
<path style="fill:#01ff81; stroke:none;" d="M1326 1282L1327 1283L1326 1282M1323 1284L1324 1285L1323 1284z"/>
<path style="fill:#01ffff; stroke:none;" d="M1320 1286L1321 1287L1320 1286z"/>
<path style="fill:#01ff81; stroke:none;" d="M1188 1289L1189 1290L1188 1289M1185 1291L1186 1292L1185 1291M1303 1297L1304 1298L1303 1297z"/>
<path style="fill:#01ffff; stroke:none;" d="M1300 1299L1301 1300L1300 1299M1168 1302L1169 1303L1168 1302z"/>
<path style="fill:#01ff81; stroke:none;" d="M1165 1304L1166 1305L1165 1304z"/>
<path style="fill:#2ff79a; stroke:none;" d="M1162 1306L1163 1307L1162 1306z"/>
<path style="fill:#01ff81; stroke:none;" d="M1283 1310L1284 1311L1283 1310M1280 1312L1281 1313L1280 1312z"/>
<path style="fill:#01ffff; stroke:none;" d="M1277 1314L1278 1315L1277 1314M1145 1317L1146 1318L1145 1317z"/>
<path style="fill:#01ff81; stroke:none;" d="M1142 1319L1143 1320L1142 1319M1260 1325L1261 1326L1260 1325z"/>
<path style="fill:#01ffff; stroke:none;" d="M1257 1327L1258 1328L1257 1327M1125 1330L1126 1331L1125 1330z"/>
<path style="fill:#01ff81; stroke:none;" d="M1122 1332L1123 1333L1122 1332z"/>
<path style="fill:#2ff79a; stroke:none;" d="M1119 1334L1120 1335L1119 1334z"/>
<path style="fill:#01ff81; stroke:none;" d="M1240 1338L1241 1339L1240 1338M1237 1340L1238 1341L1237 1340z"/>
<path style="fill:#01ffff; stroke:none;" d="M1234 1342L1235 1343L1234 1342M1102 1345L1103 1346L1102 1345z"/>
<path style="fill:#01ff81; stroke:none;" d="M1099 1347L1100 1348L1099 1347M1217 1353L1218 1354L1217 1353z"/>
<path style="fill:#01ffff; stroke:none;" d="M1214 1355L1215 1356L1214 1355M1082 1358L1083 1359L1082 1358z"/>
<path style="fill:#01ff81; stroke:none;" d="M1079 1360L1080 1361L1079 1360z"/>
<path style="fill:#2ff79a; stroke:none;" d="M1076 1362L1077 1363L1076 1362z"/>
<path style="fill:#01ff81; stroke:none;" d="M1197 1366L1198 1367L1197 1366M1194 1368L1195 1369L1194 1368z"/>
<path style="fill:#01ffff; stroke:none;" d="M1191 1370L1192 1371L1191 1370M1059 1373L1060 1374L1059 1373z"/>
<path style="fill:#01ff81; stroke:none;" d="M1056 1375L1057 1376L1056 1375M1174 1381L1175 1382L1174 1381z"/>
<path style="fill:#01ffff; stroke:none;" d="M1171 1383L1172 1384L1171 1383M1039 1386L1040 1387L1039 1386z"/>
<path style="fill:#01ff81; stroke:none;" d="M1036 1388L1037 1389L1036 1388M1033 1390L1034 1391L1033 1390M1154 1394L1155 1395L1154 1394M1151 1396L1152 1397L1151 1396z"/>
<path style="fill:#01ffff; stroke:none;" d="M1148 1398L1149 1399L1148 1398M1016 1401L1017 1402L1016 1401z"/>
<path style="fill:#01ff81; stroke:none;" d="M1013 1403L1014 1404L1013 1403M1131 1409L1132 1410L1131 1409z"/>
<path style="fill:#01ffff; stroke:none;" d="M1128 1411L1129 1412L1128 1411z"/>
<path style="fill:#01ff81; stroke:none;" d="M1111 1422L1112 1423L1111 1422M1108 1424L1109 1425L1108 1424z"/>
<path style="fill:#01ffff; stroke:none;" d="M1105 1426L1106 1427L1105 1426z"/>
<path style="fill:#01ff81; stroke:none;" d="M1088 1437L1089 1438L1088 1437z"/>
<path style="fill:#01ffff; stroke:none;" d="M1085 1439L1086 1440L1085 1439z"/>
<path style="fill:#2ff79a; stroke:none;" d="M1068 1450L1069 1451L1068 1450z"/>
<path style="fill:#01ff81; stroke:none;" d="M1065 1452L1066 1453L1065 1452z"/>
<path style="fill:#01ffff; stroke:none;" d="M1062 1454L1063 1455L1062 1454z"/>
<path style="fill:#01ff81; stroke:none;" d="M1045 1465L1046 1466L1045 1465z"/>
<path style="fill:#01ffff; stroke:none;" d="M1042 1467L1043 1468L1042 1467z"/>
<path style="fill:#2ff79a; stroke:none;" d="M1025 1478L1026 1479L1025 1478z"/>
<path style="fill:#01ff81; stroke:none;" d="M1022 1480L1023 1481L1022 1480z"/>
<path style="fill:#01ffff; stroke:none;" d="M1019 1482L1020 1483L1019 1482z"/>
<path style="fill:#01ff81; stroke:none;" d="M980 1490L981 1491L980 1490z"/>
<path style="fill:#01ffff; stroke:none;" d="M988 1492L989 1493L988 1492z"/>
<path style="fill:#2ff79a; stroke:none;" d="M997 1492L998 1493L997 1492z"/>
</svg>
