<svg width="24" height="25" viewBox="0 0 24 25" fill="none" xmlns="http://www.w3.org/2000/svg">
<g clip-path="url(#clip0_41_228)">
<path d="M12 0.25C15.31 0.25 18.291 1.603 20.459 3.772L22.939 1.292L24 8.633L16.563 7.667L19.052 5.178C17.244 3.371 14.753 2.25 12 2.25C6.486 2.25 2 6.736 2 12.25C2 17.764 6.486 22.25 12 22.25C15.872 22.25 19.229 20.034 20.89 16.807L22.607 17.853C20.595 21.656 16.602 24.25 12 24.25C5.373 24.25 0 18.877 0 12.25C0 5.623 5.373 0.25 12 0.25Z" fill="url(#paint0_linear_41_228)"/>
</g>
<defs>
<linearGradient id="paint0_linear_41_228" x1="0" y1="12.0466" x2="24" y2="12.0466" gradientUnits="userSpaceOnUse">
<stop stop-color="#21D4FD"/>
<stop offset="1" stop-color="#B721FF"/>
</linearGradient>
<clipPath id="clip0_41_228">
<rect width="24" height="24" fill="white" transform="translate(0 0.25)"/>
</clipPath>
</defs>
</svg>
