<svg width="25" height="25" viewBox="0 0 25 25" fill="none" xmlns="http://www.w3.org/2000/svg">
<g clip-path="url(#clip0_59_534)">
<path d="M8.75 9.5V5.5L16.75 12.5L8.75 19.5V15.5H0.75V9.5H8.75ZM14.75 2.5C12.963 2.5 11.29 2.974 9.839 3.795L10.067 3.995L11.462 5.216C12.466 4.76 13.577 4.5 14.75 4.5C19.161 4.5 22.75 8.089 22.75 12.5C22.75 16.911 19.161 20.5 14.75 20.5C13.577 20.5 12.466 20.24 11.462 19.785L10.067 21.006L9.839 21.206C11.29 22.026 12.963 22.5 14.75 22.5C20.272 22.5 24.75 18.023 24.75 12.5C24.75 6.977 20.272 2.5 14.75 2.5Z" fill="url(#paint0_linear_59_534)"/>
</g>
<defs>
<linearGradient id="paint0_linear_59_534" x1="0.75" y1="12.3305" x2="24.75" y2="12.3305" gradientUnits="userSpaceOnUse">
<stop stop-color="#21D4FD"/>
<stop offset="1" stop-color="#B721FF"/>
</linearGradient>
<clipPath id="clip0_59_534">
<rect width="24" height="24" fill="white" transform="translate(0.75 0.5)"/>
</clipPath>
</defs>
</svg>