<svg width="24" height="24" viewBox="0 0 24 24" fill="none" xmlns="http://www.w3.org/2000/svg">
<g clip-path="url(#clip0_7_21)">
<path fill-rule="evenodd" clip-rule="evenodd" d="M10.499 0.471C11.392 -0.157 12.607 -0.157 13.501 0.471C15.643 1.977 15.183 1.833 17.836 1.825C18.944 1.821 19.927 2.507 20.265 3.521C21.078 5.948 20.792 5.573 22.944 7.065C23.843 7.688 24.219 8.798 23.872 9.809C23.046 12.226 23.042 11.762 23.872 14.19C24.219 15.201 23.843 16.311 22.944 16.934C20.793 18.426 21.078 18.051 20.265 20.478C19.927 21.492 18.944 22.178 17.836 22.175C15.182 22.166 15.643 22.022 13.501 23.528C12.607 24.157 11.392 24.157 10.499 23.528C8.35602 22.023 8.81702 22.165 6.16402 22.175C5.05602 22.178 4.07302 21.492 3.73502 20.478C2.92302 18.048 3.20202 18.424 1.05502 16.934C0.157015 16.311 -0.218985 15.201 0.128015 14.19C0.955015 11.772 0.958015 12.237 0.128015 9.809C-0.218985 8.798 0.157015 7.688 1.05502 7.065C3.20102 5.576 2.92202 5.953 3.73502 3.521C4.07302 2.507 5.05602 1.821 6.16402 1.825C8.81001 1.833 8.34402 1.986 10.499 0.471Z" fill="#FAFAFA"/>
</g>
<defs>
<clipPath id="clip0_7_21">
<rect width="24" height="24" fill="white"/>
</clipPath>
</defs>
</svg>
