<svg width="32" height="33" viewBox="0 0 32 33" fill="none" xmlns="http://www.w3.org/2000/svg">
<path d="M0 16.75C0 7.91344 7.16344 0.75 16 0.75V0.75C24.8366 0.75 32 7.91344 32 16.75V16.75C32 25.5866 24.8366 32.75 16 32.75V32.75C7.16344 32.75 0 25.5866 0 16.75V16.75Z" fill="white"/>
<path d="M12.2264 27.6385C21.1821 27.6385 26.0796 20.2164 26.0796 13.7802C26.0796 13.5694 26.0753 13.3596 26.0658 13.1507C27.0188 12.4609 27.8412 11.6068 28.4945 10.6285C27.6221 11.0165 26.6833 11.2776 25.6985 11.3954C26.7037 10.7924 27.4754 9.83844 27.8395 8.70136C26.8838 9.26855 25.8382 9.66838 24.7478 9.88364C23.8593 8.93689 22.5944 8.34476 21.1938 8.34476C18.505 8.34476 16.3246 10.526 16.3246 13.2148C16.3246 13.597 16.3674 13.9687 16.451 14.3254C12.4043 14.1217 8.81608 12.1835 6.41463 9.23643C5.98211 9.97974 5.75461 10.8245 5.75537 11.6845C5.75537 13.3744 6.6149 14.8661 7.92206 15.7389C7.14886 15.7152 6.39264 15.5063 5.71697 15.1297C5.71625 15.1501 5.71625 15.17 5.71625 15.1919C5.71625 17.5507 7.39452 19.5202 9.62237 19.9664C9.20395 20.0804 8.77218 20.138 8.33851 20.1378C8.02533 20.1378 7.7201 20.107 7.42346 20.05C8.04332 21.9853 9.84073 23.3936 11.9718 23.4329C10.3053 24.7396 8.20611 25.5178 5.92457 25.5178C5.53645 25.5181 5.14865 25.4956 4.76318 25.4503C6.91801 26.832 9.47665 27.6382 12.2267 27.6382" fill="#1DA1F2"/>
</svg>
