<svg width="30" height="29" viewBox="0 0 30 29" fill="none" xmlns="http://www.w3.org/2000/svg">
<g filter="url(#filter0_d_41_233)">
<path d="M4.275 12.6146L12.272 20.0329C12.4293 20.178 12.6251 20.25 12.8209 20.25C13.0475 20.25 13.2719 20.154 13.4358 19.9654L25.7888 5.67857C25.9307 5.51514 26 5.31171 26 5.10714C26 4.62829 25.6282 4.25 25.1761 4.25C24.9495 4.25 24.724 4.346 24.5612 4.53457L12.7571 18.186L5.375 11.3357C5.2166 11.1906 5.0208 11.1186 4.825 11.1186C4.3663 11.1186 4 11.5026 4 11.9746C4 12.21 4.0924 12.4454 4.275 12.6146Z" fill="#FAFAFA"/>
</g>
<defs>
<filter id="filter0_d_41_233" x="-1" y="0.25" width="32" height="32" filterUnits="userSpaceOnUse" color-interpolation-filters="sRGB">
<feFlood flood-opacity="0" result="BackgroundImageFix"/>
<feColorMatrix in="SourceAlpha" type="matrix" values="0 0 0 0 0 0 0 0 0 0 0 0 0 0 0 0 0 0 127 0" result="hardAlpha"/>
<feOffset dy="4"/>
<feGaussianBlur stdDeviation="2"/>
<feComposite in2="hardAlpha" operator="out"/>
<feColorMatrix type="matrix" values="0 0 0 0 0 0 0 0 0 0 0 0 0 0 0 0 0 0 0.25 0"/>
<feBlend mode="normal" in2="BackgroundImageFix" result="effect1_dropShadow_41_233"/>
<feBlend mode="normal" in="SourceGraphic" in2="effect1_dropShadow_41_233" result="shape"/>
</filter>
</defs>
</svg>